<?xml version="1.0" encoding="utf-8"?>
<!-- Generator: Adobe Illustrator 22.0.1, SVG Export Plug-In . SVG Version: 6.00 Build 0)  -->
<svg version="1.1" id="website_xA0_Image_1_" xmlns="http://www.w3.org/2000/svg" xmlns:xlink="http://www.w3.org/1999/xlink"
	 x="0px" y="0px" viewBox="0 0 3600 1800" style="enable-background:new 0 0 3600 1800;" xml:space="preserve">
<g>
	<path d="M1927.3,835.1c-19.5-3.2-37.7-3.2-60.6-1.7c-11.5,0.8-25.4,1.8-37,3.8c-9.1,1.6-16,3.7-24.7,6.9c-7,2.6-13.6,5.4-19.6,9.7
		c-5.7,4-9.8,8.8-14.1,14.4c-6.1,8.1-13.6,15.3-20.8,22.3c-2.8,2.8-6.9,6.1-10.5,7.8c-3.5,1.6-7.8,1.9-11.2-0.7
		c-7.2-5.6-7.2-15.9-3.1-25.5c1.1-2.6,2.5-7.2,4.8-9.4c0,0-6.8,3.6-10.3,5.5c-6.6,3.5-14.2,7-20.9,9.3c-2.1,0.7-4.8,0.3-7-0.3
		c-6.2-1.8-8.2-7.6-3.7-12.2c4.1-4.3,9.1-7.8,13.8-11.5c4.4-3.5,9.3-6.4,13.3-10.4c2.9-2.9,6.6-5.4,6.6-5.4
		c-3.7-2.4-15.9-0.9-22.2-0.3c-23.7,2.3-45.3,4.1-69.1,6.6c-14.5,1.5-30,1.5-44.1,2c-33.4-0.3-55.2,1.3-76.3,2.8
		c-21.4,1.5-30.4,4.1-51.6,7.6c-8,1.3-23.2,5.7-33.5,3.3c-7.4-1.7-12.2-4.4-6-16.6c0,0-10.4,1.5-15.6,2c-7.3,0.7-16.4,1.9-23.6,2.8
		c-7.4,0.9-14.3,2-21.7,3c-12.2,1.7-36.5,5.5-48.7,7.6c-26,4.4-33.9,6.5-60.8,12.1c-11.1,2.3-30.9,8.1-41.9,10.8
		c-8,1.9-16.1,3.6-24.3,4.7c-5.3,0.7-11.5-0.9-13.5-6c-1.8-4.7-1.3-6.3,0.5-10.2c3.7-8.2,13-12.4,19.5-18.5
		c3-2.8,10.1-9.7,10.7-10.6c-4.7,1.6-11.7,2.8-16.5,3.9c-16.4,3.8-33.3,3.8-50,5.2c-19,1.6-36.4,2.6-55.4,4.5
		c-14.5,1.4-31.8,3.7-46.3,5.7c-26.9,3.8-42.8,8.3-64.5,14.5c-17.6,5.1-35.5,9.4-53.4,13.2c-6.1,1.3-13,3.4-19.2,0.7
		c-3.2-1.4-4.1-5.3-3.7-8.7c1-7.5,5.2-13,10.2-18.1c4.8-4.9,12.6-12.4,17.4-17.4c-0.2-0.4-15.1,6.8-20.6,9.8c-5.6,3-11,6.3-16.5,9.5
		c-4.5,2.6-10,3-14,0.8c-3.8-2-4.4-6.4-2.8-10.6c0.8-2.3,1.8-3.8,3.4-5.6c-8.8,0.7-17,0.8-25.1,1.6c-19.1,0.9-28.1,3.2-42,4.9
		c-10.3,1.3-44.8,7-55.3,8.4c-19,3.2-12.3,2.2-31.2,5.6c-10.4,1.8-25.2,4.6-35.6,6.6c-14.8,2.8-23.8,4.4-38.7,6.8
		c-3.3,0.6-10.1,1.3-13-0.5c-7.2-4.3-5.6-12.7-0.1-18.3c5.9-6,13.1-10.8,20-15.8c6.6-4.7,21.4-12.8,20.4-14
		c-0.9-1.1-15.3,1.7-19.5,3.1c-17.4,5.8-10.3,3.2-27.6,9.2c-6.3,2.2-22.4,8.9-27.7,11.5c-1.7,2-8.4,6.5-11.9,7
		c-1.4,0.2-4.7-0.8-5.1-2.1c-0.4-1.2,0.8-3.8,1.8-4.6c4.6-3.9,9.5-7.3,14.2-11.1c2.6-2.1,4.9-4.4,7.4-6.6c1-0.7-0.1-1.4-0.7-1.7
		c-4.4-2.2-15.5-2.5-20.9-2.1c-19.1,1.4-33.4,2.8-52.4,5.1c-26.3,3.2-52.5,10.2-78.2,16.3c-18.3,4.4-35.9,8.5-54.4,11.8
		c-6.4,1.2-11.9,4.2-18.3,3.2c-3.6-0.6-10.5-2.3-11.9-4.8c-1.1-2-0.2-9.8,0.7-11.8c1.5-3.3,4.8-8.3,8.3-12.6
		c-5.2,2.6-15.7,7.4-20.8,10.1c-4.1,2.2-4.3,2.4-8.3,4.8c-3.1,1.8-13.5,10.4-16.3,6.8c-0.9-1.2-3.3-6.3,1.7-14.9
		c1.9-3.3,5.8-6.9,9.1-8.8c9.8-5.5,18.1-13.2,37.9-15.7c3.6-0.5,8.3,2.2,8.6,6.5c4.8-2.8,15.4-13,20.2-7.2c1.5,1.9-3.3,5.2-4.5,6.5
		c-7.3,7.8-15.1,14.8-22.4,22.6c-2.3,2.5-7.5,10.1-7.4,13.5c0.2,6.8,12.7,3.8,13.8,3.5c17.8-4.5,19.3-3.7,40.7-8.8
		c9.6-1.9,23.3-5.6,32.9-7.7c18.9-4.3,39.4-9.8,58.4-12.7c20.1-3.1,40.5-4.7,60.7-6.5c6.5-0.6,13.2,0,19.7,0.8
		c3.3,0.4,7.3,1.6,9.9,3.8c1.6,1.3,0.3,3.4-0.3,4.5c-1.4,2.7-6.8,8.7-10.1,10.9c4.4-2.5,22.3-10.1,31.2-12.8
		c13.2-3.9,26.9-10.2,41.3-10.7c4.6-0.1,5.2,0,6.1,2c0.9,1.9-1,4.4-2.4,5.6c-7.9,6.7-16.1,13.2-24.3,19.6c-3.9,3.1-8.5,5.7-11.9,9.2
		c-2.8,2.8-8.5,5.6-6.4,10.6c1.4,3.2,4.7,2.7,6.5,2.4c7.1-1,14.2-2.3,21.2-3.5c13.3-2.3,26.7-4.5,40-6.9c11.4-2.1,22.8-4.6,34.3-6.4
		c29.6-4.7,59.1-9.6,88.7-13.6c15.6-2.1,34.1-2.7,49.9-4.1c2.9-1.9,1.6-0.9,3.2-2.1c13.9-10,30.2-15.9,47.1-17.6
		c4.5-0.4,8.6,0.6,11.3,5c22.3-17.9,49.4-41,71.8-55.6c-1.1,0-9.7,0.8-13.2,1c-13.9,0.7-30.1,0.3-43.8-0.3
		c-11-0.4-21.9-1.1-32.8-2.1c-16.9-1.5-36-2.7-52.9-4.8c-14.1-1.7-27.9-3.9-42.1-6.6c-11.9-2.3-20.3-3.8-32.3-5.5
		c-8.9-1.2-21.4-2.3-30.4-2.8c-14.4-0.7-38.3-1.4-52.7-1.2c-15.2,0.2-25.2,1.3-40.4,2.5c-10.9,0.8-15.8,1.3-26.6,3.1
		c-7.5,1.3-25.5,5.7-26.5,6.3c4.1-2.6,34.3-8.9,50.5-10.2c15.8-1.3,31.6-2.7,47.4-2.5c23.6,0.2,47.3,0.6,70.7,3
		c21.4,2.2,42.5,7.2,63.8,10.7c10.4,1.7,20.9,2.9,31.4,3.9c15.6,1.5,31.3,2.8,46.9,4c13.9,1,42.5,2.2,56.6,2.1
		c11.4-0.1,27.4-1.8,27.4-1.8s1.9-1.7,6.3-4.9c22.5-16.4,45.8-34.7,71.4-46.2c5.3-2.4,12.2-7,17.6-9.2c4.6-1.9,14-2.8,18.4-0.9
		c3.9,1.7,14.1,9.6,8.7,23.5c-2.3,5.8-11.7,16.9-16.8,20.2c-22.5,14.7-17.1,10.3-26.9,14.1c-10.3,4.1-35.7,5.3-62.9,4.6
		c-5.1,3.6-2.4,2.4-8.4,6.4c-25.5,17.1-50,35.6-73,56c-11.4,10-22.3,20.7-33.3,31.2c-5.4,5.2-11.1,12.2-6.8,16.8
		c1.3,1.4,5.2,1.8,7.1,1.5c12.4-2,30.4-6.3,38.9-8.5c28.2-7.2,54-15.8,82.9-20.2c26.1-4,52.3-6.8,78.6-8.7
		c23.9-1.7,59.2-4.2,66.9-5.4c7.9-1.3,20.7-3.6,28.1-6.4c3.9-1.5,7.1-5.8,9.9-9.3c4.2-5.1,20.3-8.4,19.3-1.1c-0.5,3.5-6,3.3-8.8,5.2
		c-1.8,1.1-3.9,2.6-3.9,2.6s-9.7,15.3-17.1,20.3c-4.6,3.1-9.7,5.7-13.8,9.4c-3.4,3.1-6.1,7.2-8.5,11.2c-1.4,2.5,1.9,7.4,4.6,7.3
		c6.2-0.2,12.8-1.7,18.8-3.1c14-3.1,22.3-6,36-9.4c20.7-5.1,45.9-10.3,66.9-13.9c21.6-3.7,43.3-7.1,65-10.2c16.1-2.3,32.3-4,48.5-6
		c1.1-0.1,3-0.5,3-0.5s8.6-15.5,36.1-18c5.4-0.5,11.2-0.6,16.7,0.1c3.2,0.4,7.2,3,3.7,6c-1.7,1.5-15.8,5.1-21.2,6.6
		c-7.1,1.9-17.6,4.8-25,5.5c-1.6,0.2-5.2,5.3-4.5,10.2c0.8,5.1,4.8,6.6,9,7c3.7,0.3,45.4-8.6,67.1-10.7c16-1.5,32-2.5,48.1-3.1
		c19.3-0.6,38.6,0,57.9-0.9c17.2-0.8,34.4-3,51.5-4.5c18.1-1.6,36.3-3.2,54.4-4.6c2.1-0.2,4.3,0.2,6.4,0.6c5,1.1,6.7,4.1,3.8,8.3
		c-2.8,4.1-6.5,7.6-10.2,10.9c-5,4.4-10.5,8.3-15.7,12.6c-1.5,1.2-6.7,4.2-6.3,6.6c0.9,5.1,12,0.4,15.8-1.3
		c9.9-4.6,18.2-9.8,28.1-14.4c1.4-0.6,2.9-0.1,4.3,0.6c0.6,0.3,1.2,2.5,0.7,3.7c-2.4,6.6-5.2,13.1-7.6,19.7
		c-0.6,1.7-1.8,5.8-1.7,7.5c0.3,4.4,1.3,6.6,3.1,7.9c2.2,1.2,7.9-2.3,9.4-3.5c6.2-4.8,9.8-9.6,15.6-14.8
		c9.7-8.8,15.9-22.4,27.9-28.9c12-6.5,24.7-11,38-14c15.3-3.5,52.8-5.6,65.1-5.3C1909.9,832.5,1927.3,835.1,1927.3,835.1z
		 M1021.3,775.1c0.1,0.3,28.8-0.3,36.2-0.6c12-0.5,25.7-3,35.1-7.9c13.5-6.9,14.5-8,18.6-11.9c3.9-3.7,16.9-15,14.8-28.5
		c-0.5-3.4-7.7-8.8-11.8-8.2c-3,0.4-11.7,4-14.2,5.7c-3.4,2.4-8.3,5.8-11.8,8.1c-14,9.2-28.3,18.1-42.3,27.3
		C1039.8,763.1,1027.3,770.7,1021.3,775.1z M929.8,833.7c-2.2-4.2-4.8-4.5-9.8-3.2c-8.4,2.2-16.5,5.8-24.3,9.6
		c-7.1,3.4-15.1,7.7-19.8,14.3c-1.4,1.9-2.7,4.1-1.9,6.4c1.6,4.3,7.1,0.7,10.2-0.9c11.5-5.8,25.3-12.7,36.7-18
		C924.3,839.5,926.3,836.7,929.8,833.7z M382.5,833.1c0.6-3.8-6.3-4.8-9.4-3.3c-9,4.4-18.8,10.9-27.6,15.8
		c-4.1,2.3-18.6,14.3-14.9,18.6c1.2,1.4,8.3-4.3,9-4.8C352.9,850.2,370.7,845.9,382.5,833.1z M1432.3,841.3
		c0.2,0.6,45.9-9.6,44.8-12.8c-0.8-2.3-1-3.7-10.4-2.3C1457.4,827.5,1440.8,837.4,1432.3,841.3z M1229,829.6
		c0.2-0.6,0.7-0.8-0.7-2.7c-1.7-2.2-5.9-1-7.4,0.2c-1.2,1-3.1,7.5-3.7,8.9C1220.7,832.8,1228.5,831.8,1229,829.6z"/>
	<path d="M2063.2,524.4c1.8,2.3,0.2,5.6-2.2,9c3.9-2.2,8-4.6,12.2-6.9c2.8-1.5,8.4-2.1,7.8,2.3c-0.4,2.7-3.9,3.9-6,5.5
		c-10.8,8.2-20,17.8-28.2,28.6c-2.5,3.4-4.7,7.7-2.6,11.7c2.1,3.8,4.6,5,8.8,4.9c24.2-1,58.3-11.6,71.6-16
		c63-23.5,78.2-10.8,85.7-8.3c-2.1-1.2-13.8-4.2-17.3-4.4c-29.3-2-63.5,12-72.4,15.2c-16,4.7-27.4,8-43.7,11.5
		c-7.1,1.5-20.5,3.4-27.8,2.9c-9.5-0.6-14.3-9.1-10.8-18.1c1.2-3.2,3.4-6,5.2-9c0.9-1.5,3.6-6.2,5.8-8.6c-3.4,0.5-10.9,4.3-14.9,5.7
		c-1.6,0.5-5.1,1.8-7,2.2c-1,0.1-6,1.3-7-3.5c-0.3-1.3-0.3-2.9,1.1-7.2c-1.6-0.1-9.7,0.9-13.9,1.8c-15.7,2.8-26.6,4.5-43.2,8.5
		c-14.2,3.4-35.9,10.1-49.8,14.4c-32,9.9-37.2,11.5-56.5,15.2c-16.9,3.2-33.9,5.9-51,8.5c-8.9,1.4-15.4-1.7-19.1-9.7
		c-0.4-0.9-0.5-2.1-0.6-3.1c-0.9-9.7,1.7-18.2,8.9-25.1c0.5-0.5,3.3-3.1,4.5-4.1c-2.6,0.3-14.7,6.2-20.5,8.9
		c-3.5,1.8-7.7,5-11.3,6.6c-3.3,1.3-5.4,1.8-7.8-1.3c-2.6-3.4-2.5-8.5-0.4-12.3c0.9-1.6,1.5-2.8,3.4-4.6c-18.7-1-24.2-0.2-32,0.2
		c-6.8,0.4-4.8,0.2-11.8,0.9c-8.7,0.5-28.4,6.1-36.7,8.5c-10.5,3-22.3,6.8-32.8,9.8c-9.5,2.8-15.1,5-24.1,8.3
		c-15.8,5.2-23.3,8.2-38.9,11.6c-8.2,1.8-16.4,3.4-24.7,4.8c-5.5,0.9-11.2,2.1-16.7,1.9c-5.2-0.2-10.7-1.3-15.5-3.4
		c-4.6-2-8.1-6.7-7.6-11.8c0.6-6.2,3.1-12.1,8-16.8c5.4-5.1,10.3-10.7,15.4-16.2c1.3-1.4,6.6-6.6,5.8-7.1c-2.3-1.5-8.4,1.4-12.4,2.6
		c-7.6,2.4-17.9,6.3-25.5,9c-8.9,3.2-17.7,6.6-26.3,10.2c-3.2,1.4-6,3.9-9.1,5.7c-2.8,1.7-6.5,3.3-8.9,0.4c-2.6-3.1,0.8-6.3,2.9-8.6
		c4.1-4.7,9.7-8.7,13.9-13.3c1.7-1.8,4.7-4.4,7.5-8.6c0.9-1.4-4.2-1.4-5-1.4c-10,0.5-20,2.5-29.8,4.6c-12.2,3.2-22.6,5.3-34.5,7.9
		c-7.1,1.6-14.6,3.3-22,5.1c-26.6,6.3-53.1,12.9-79.7,18.9c-16.3,3.7-32.8,7-49.4,9.3c-10.3,1.4-20.9,0.7-31.4,0.6
		c-6,0-12.3,0.1-18.1-1c-5.9-1.2-12-0.9-17-5.8c-5.2-5-7-12.1-3.1-18.2c3-4.8,6.8-9.2,11-14.7c-0.8,0.1-4.5,1.8-6.2,2.8
		c-7.1,4-14,8.2-21.1,12.3c-2.4,1.4-6.2,2.8-8.4,0.7c-2.3-2.3-2.7-5.1-1.2-9.3c0.7-1.9,1.5-4.3,4.5-8.2c-0.8-0.1-9.8,1.2-10.5,1.3
		c-18.1,3.2-37,7.5-59.2,13c-19.3,4.8-29.8,7.8-58.9,18.8c-6.2,2.4-25.7,11-38.5,16.6c-10.8,4.8-21.4,10.3-32.4,14.3
		c-7.3,2.7-21,5.1-23.4,5.1c-3.6,0.2-24.8-1.7-25.9-16c-0.3-4.5,1.6-12.2,4.2-15.7c5.4-7,12.2-12.9,18.3-19.2
		c3.1-3.2,11.9-9.6,11-11.5c-0.8-1.6-13.4,3.2-19.4,5.4c-4.4,1.6-8.5,3.6-12.8,5.6c-4.6,2.1-10.3,6-14.9,8.2c-1.6,0.8-3.4,1.7-5,1.6
		c-1.9,0-4.8-0.6-5.4-1.8c-0.7-1.6-0.3-4.6,0.9-6.1c5-6.3,10.3-12.3,15.6-18.4c5.6-6.4,11.2-12.8,16.7-19.3c0.7-0.8,1.3-1.6,1.3-3.5
		c0.1-2.3-13.8,2.8-16.8,4.2c-14.6,6.4-21.7,10.4-36,17.4c-12.4,6.1-19.6,10.7-31.7,17.6c-0.8,0.4-9.4,7.3-14.4,6
		c-2-0.5-4.7-1.8-5.3-3.6c-0.5-1.4,0.6-4.4,1.9-5.7c8.7-9.1,19.4-16.1,29.1-24.1c1.2-1,4.9-4.2,6.1-5.2c-0.3-0.6-0.9-0.5-1.6-0.6
		c-5.3-0.6-11.8,0.6-18,1.1c-1.9,0.1-11.1,0.9-12.9,1.2c-12.4,2-17.5,4-27.6,7.4c-7.1,2.4-12.6,3.7-19.9,5.6
		c-8.1,2-30.2,7.5-38.3,9.4c-1.2,0.3-15.9,3.2-17.1,3.3c0,0,17.4-4.1,19.3-4.6c7.1-1.9,27.3-6.3,34.4-8.4
		c14.2-3.6,16.4-4.1,30.4-8.9c3.2-1.1,14-3.9,17.3-4.4c2.6-0.4,5.1-0.7,7.7-1c8.4-0.7,16.9-1.7,25.3-1.9c2.3-0.1,6.5,1.2,7.9,3.1
		c1,1.3-0.6,5.4-1.8,6.8c-4.7,5.4-10.6,10.3-15.8,15.3c-0.8,0.8-11.6,10.5-12.4,11.7c4.3-2.6,6.1-4.1,9.3-5.9
		c20-11.4,51.4-28.1,72.6-35.8c2.7-1,5.5-1.6,8.3-2.2c3.2-0.7,6.2-0.4,8.4,2.6c2.2,3,1.6,6.2-0.1,8.8c-3.4,5.2-7.3,10.1-11.2,14.9
		c-4.5,5.5-12.2,14.1-17.5,20.2c8.6-5.1,19-9.9,26.7-12.8c5.2-1.9,10.5-3.5,15.8-4.9c1.7-0.5,3.9-0.4,5.6,0.2c3.7,1.2,4.2,3.7,2.7,7
		c-2.2,4.9-6.2,8.8-9.8,12.7c-5.4,5.9-11.6,11.1-16.9,17.1c-3,3.2-7.9,11.3-7.1,16.1c0.7,4.2,6.7,8.6,12,9.7
		c10.6,2.9,32.9-5.3,34-5.8c20-8.7,39.2-18.2,43.5-19.8c20-8.6,39.8-16.4,60.2-22.5c17.5-5.3,35.4-9.3,53.3-13.4
		c11.7-2.6,30.9-6.2,39.7-7.3c2.5-2.2,1.6-1.6,4-3.4c8.3-6.3,17.2-10.3,27.8-11.1c5.3-0.4,10.9,1.8,9.7,6.9
		c-0.3,1.1-1.8,3.3-1.6,3.5c3.3-2.7,6.7-5.4,10-8.1c1.1-0.9,2.2-1.9,3.5-2.3c1.6-0.5,4-0.1,4.7,0.8c0.9,1.3,0.7,4.1,0,5.5
		c-1.8,3.9-4.8,6.3-7.8,9.4c-4.2,4.4-10.1,8.9-14.1,13.5c-3.1,3.6-5.7,6.4-8,10.5c-1.6,3-1.8,8.5,1.2,10.7
		c6.3,4.6,11.3,4.9,18.6,5.6c7,0.6,24,0.5,31,0.3c7.5-0.1,13-0.9,18.3-1.9c24.3-3.3,50.4-10.3,76.9-16.3c12.1-2.8,24.5-6,36.7-8.7
		c14-3.6,28.6-6.7,42.5-9.6c8.8-1.8,17.5-4.7,26.3-6.5c8.5-1.6,17.4-2.9,25.9-3.9c5.7,0.2,8.8-0.7,10.6,3.3
		c1.8,4.2-1.1,9.1-3.8,12.4c-2,2.4-7.1,7.7-9.9,10.6c6.3-2.5,11.3-4.7,16.9-6.5c13.6-5,30.5-11.7,44.2-15.7c1.9-0.6,4.2-0.8,6-0.2
		c7.1,2,8.9,6.2,4.7,12.3c-2.9,4.2-6.6,7.9-10.1,11.6c-5.2,5.6-14.3,11.3-17.6,18.5c-2.8,6.2,2.4,11.5,9.4,12.1
		c9.1,2.1,18.4-0.2,42.5-4.8c22.4-3.8,51.8-16.6,73.5-22.8c17.3-4.9,34.4-10.4,52-14.4c3.9-0.9,8.4-1.8,12.5-2.2
		c7.8-0.8,15.3-0.9,23.2-1.4c6.1-0.4,21,0.3,21,0.3s2.4-1.8,4.6-3c10.3-5.4,20.9-9.1,32.7-7.6c3.8,0.5,7.3,1.8,8.2,6.2
		c20.3-17.3,43-36.4,64-54.3c-6.7-0.6-4.7-0.4-10.1-1c-15.8-1.4-37.8-3.1-53.5-4.8c-16.8-1.8-37.1-3.6-53.9-5.3
		c-24.9-2.6-20.9-3-45.9-5.2c-13.8-1.2-57-3.6-70.9-4c-12.1-0.4-16.4-0.5-33.5,0.5c-3.2,0.2-18.4,1.6-35.2,5.3
		c2.9-0.8,12-3,14.3-3.4c19.8-3.3,39-4,59.1-2.9c21.5,1.2,43.9,2.1,65.4,3.8c14.4,1.1,28.8,3.4,43.2,4.9c18,1.9,36,3.5,54,5.3
		c21.6,2.1,46.4,4,68,6.1c1.6-0.8,0.4-0.3,2-1.2c12.6-7.1,25-14.8,37.9-21.2c8.6-4.3,17.9-7.5,27.2-10.1c8.9-2.5,20.2-3.5,28.2,2.7
		c5,3.9,3.1,9.9-0.8,15c-3.6,4.8-13.8,7.9-18.9,9.3c-10.3,3-15.7,4.4-26.3,6.1c-8.9,1.4-23.9,0.9-33,1c-2.7,2-2.2,1.5-5.4,4.2
		c-20.2,17-40.5,33.8-60.5,51c-7.7,6.6-14.3,14.4-21.5,21.6c-1,1-4.9,5.8-5.8,6.9c-6.1,7.5-5.2,13.6-1.3,17.2
		c2.4,2.2,7.9,1.6,11.4,1.3c14.1-1.6,33.5-5.5,47.3-7.9c17.9-3.6,27.4-5.7,47.6-12.2c18.5-5.4,36.7-11.5,55.2-16.4
		c12.8-3.4,26-5.6,39-8.1c8-1.5,16-2.6,24.4-4c7-11.3,18.6-16.8,31.6-18.5C2055.4,522.1,2061.5,522,2063.2,524.4l-1.2,0.4
		c-6.1-5-44.3,18.9-36.5,26.6c1.4,1.4,21.5-7.6,23.3-8.2c3.2-2.2,6.5-5.9,10.8-8.9c4.7-7.3,3.5-7.8,2.3-9.5L2063.2,524.4z
		 M1893.3,486.3c1.4,0.2,13.5,0.3,14,0.4c16.8,1.2,51.2-8.5,57-12.5c3.9-2,4.9-3.9,7-7c1.2-1.9,1.9-5.6,1.3-7.2
		c-1.2-3.9-7.1-7.7-13-6.7c-3.9,0.7-11.6,3-15,4.8c-14.6,7.4-28.9,15.3-43.3,23.1C1899.6,482.1,1895.6,484.7,1893.3,486.3z
		 M1765.5,561c0.1,0.7,0.7,1,1.3,1.1c2.9,0.4,4.7-1,7.3-2.2c9.5-5.4,23.8-11.5,28.2-12.8c0.8-0.4,4.3-3.2,5.1-3.8
		c0.9-0.6,1.7-1.3,2-2.1c0.3-5-7.6-5.4-9.7-4.9c-11.5,2.3-22.3,6.4-29.7,16.2C1768.5,554.6,1765.2,558.4,1765.5,561z M1224.7,526.1
		c-2.9-7.8-41.1,14.7-36.9,25.5c1.2,3,9.4-3.4,12.5-5c6.9-3.8,9.2-5.4,16.4-8.7c3.5-2.5,5.1-3.3,6.7-5
		C1222.8,532.2,1225.9,529.4,1224.7,526.1z"/>
	<path d="M765.1,544.8c-8.4,1.9-18.6,4.5-21.5,5.1c-14.6,3.2-30,7-44.5,10.3c-10.6,2.4-21.2,4.9-31.9,6.9c-7,1.3-13.6-1-19.6-4.6
		c-7.5-4.5-9.4-14.3-4.3-22.5c3.4-5.5,7.3-10.6,11.6-16.8c-6.1,3-11.5,5.8-17,8.4c-6.9,3.3-13.7,6.9-20.9,9.5
		c-6,2.2-11-1.4-10.7-7.9c0.2-5.7,3.5-10.3,7.3-14.6c8.6-9.6,22.7-16.7,31.8-18.3c2.8-0.5,8.1-0.6,11.6,0.4c5.9,1.8,7.2,5.6,6,11.6
		c-0.1,0.6-0.7,2.4-1.2,3.8c4.7-4.5,9.6-9.5,13.8-13.4c3.8-3.6,10.2-6.1,11.5-0.8c0.5,1.8-1.4,3.8-2.7,5.3
		c-6.3,7.5-12.8,14.9-19.2,22.4c-4.1,4.9-8.4,10.9-12.1,16.1c-3.4,6,0.5,16,4.1,18.7c4.2,3,14.3,1.3,21.3-0.4
		c19.6-4.3,27.1-6.3,55.2-12.8c5-1.2,14.4-3.2,19.1-4.2C756,546.4,768.5,544.1,765.1,544.8z M619,539.5c1.6-0.3,7.6-3,10-4.2
		c9.2-4.6,16.8-8.4,26.1-13c3.9-1.9,9.6-10.7,7.1-16.5c-0.8-1.9-2-2-3.8-2.1c-1.1-0.1-6.8,0.2-13.1,2.7
		c-4.8,1.9-15.8,10.7-21.7,15.4c-3.7,3-7.8,8.2-8.2,9.2C612.4,537.2,614.4,540.4,619,539.5z"/>
	<path d="M1430.5,691.8c-4.9,6.4-10.4,12.8-15.5,16.9c-4.1,3.3-8.8,6.7-13.8,7.8c-4.6,1.1-11,1.4-14.2-0.1c-1.7-0.8-4.2-4.2-4.7-5.9
		c-3.7-9.1,0.6-17.1,9.8-21.9c10.3-5.4,13.6-5,29-2.2c6-7,9.9-19.3,18.8-21.6c7-1.8,5.9,4.1,2.5,9.6c-2.7,4.3-5.7,8.3-8.6,12.4
		c-0.8,1.2-1.5,2.4-2.6,4.1c2.3,1.2,4.2,2.3,6.2,3.3c14.8,8.8,30.5,9.3,45.9,8.3c8.6-0.6,18.6-2.6,21.8-3.4
		c2.7-0.4,10.9-2.4,18.4-8.4c0.2,0.4-8.7,6.4-11,6.9c-23.9,6.7-43.6,7.9-63.7,2.5c-6.2-1.7-7.5-3.6-12.2-5.2
		C1434.8,694.1,1431.7,692.2,1430.5,691.8z M1420.6,687.5c-1.3-0.5,0.1-0.2-1.3-0.5c-18.5-5-26.1,1.1-33.1,7
		c-6.2,5.4-4.6,14.3-1.6,18.6c1.2,1.7,3.8,3,4.7,3.1c6.4,1.2,9.9,1.3,15.1-3.9C1410.1,705.9,1415.6,696.5,1420.6,687.5z"/>
	<line x1="758.4" y1="546.7" x2="758.4" y2="546.7"/>
	<line x1="751.1" y1="548" x2="751.1" y2="547.4"/>
	<line x1="772.1" y1="543.1" x2="772.1" y2="543.1"/>
</g>
</svg>
