<?xml version="1.0" encoding="utf-8"?>
<!-- Generator: Adobe Illustrator 20.1.0, SVG Export Plug-In . SVG Version: 6.00 Build 0)  -->
<svg version="1.1" xmlns="http://www.w3.org/2000/svg" xmlns:xlink="http://www.w3.org/1999/xlink" x="0px" y="0px"
	 viewBox="0 0 220.56378 108.19843" style="enable-background:new 0 0 220.56378 108.19843;" xml:space="preserve">
<style type="text/css">
	.st0{display:none;}
	.st1{display:inline;}
	.st2{fill:#233567;}
	.st3{fill:#FFFFFF;}
	.st4{fill:url(#XMLID_122_);}
	.st5{fill:url(#XMLID_129_);}
	.st6{fill:#AD8C45;}
	.st7{fill:url(#XMLID_130_);}
	.st8{opacity:0.55;fill:url(#XMLID_133_);}
	.st9{fill:#A88D41;}
	.st10{fill:#8F6200;}
	.st11{fill:#E0C778;}
	.st12{fill:url(#XMLID_134_);}
	.st13{fill:url(#XMLID_135_);}
	.st14{fill:url(#XMLID_136_);}
	.st15{fill-rule:evenodd;clip-rule:evenodd;fill:#FFFFFF;}
	.st16{fill:#878787;}
	.st17{fill:#F39200;}
	.st18{fill:#009BC3;}
	.st19{fill:#749C4B;}
	.st20{fill:#8B5A1D;}
	.st21{fill:#A00062;}
	.st22{fill:url(#XMLID_137_);}
	.st23{opacity:0.7;}
	.st24{fill:url(#XMLID_138_);}
	.st25{fill:url(#XMLID_139_);}
	.st26{opacity:0.65;}
	.st27{fill:url(#XMLID_141_);}
	.st28{fill:url(#XMLID_142_);}
	.st29{fill:url(#SVGID_1_);}
	.st30{fill:url(#Swoosh_Highlight_4_);}
	.st31{fill:none;}
	.st32{fill:url(#XMLID_143_);}
	.st33{fill:url(#XMLID_144_);}
	.st34{fill:url(#XMLID_145_);}
	.st35{fill:url(#XMLID_146_);}
	.st36{fill:url(#XMLID_147_);}
	.st37{fill:url(#SVGID_2_);}
	.st38{fill:url(#Swoosh_Highlight_5_);}
	.st39{clip-path:url(#XMLID_148_);fill:url(#XMLID_149_);}
	.st40{clip-path:url(#XMLID_150_);fill:url(#XMLID_151_);}
	.st41{clip-path:url(#XMLID_152_);fill:url(#XMLID_153_);}
	.st42{clip-path:url(#XMLID_154_);fill:url(#XMLID_155_);}
	.st43{clip-path:url(#XMLID_156_);fill:url(#XMLID_157_);}
	.st44{fill:#D64A15;}
	.st45{fill:url(#XMLID_159_);}
	.st46{fill:url(#XMLID_160_);}
	.st47{fill:url(#XMLID_161_);}
	.st48{fill:url(#XMLID_182_);}
	.st49{fill:url(#XMLID_183_);}
	.st50{fill:url(#SVGID_3_);}
	.st51{fill:url(#Swoosh_Highlight_6_);}
	.st52{fill:url(#XMLID_184_);}
	.st53{fill:url(#XMLID_185_);}
	.st54{fill:url(#XMLID_186_);}
	.st55{fill:url(#XMLID_187_);}
	.st56{fill:url(#XMLID_188_);}
	.st57{fill:#4A2683;}
	.st58{fill:#0D4E59;}
	.st59{fill:#AE2812;}
	.st60{fill:#005496;}
	.st61{fill:#C3002F;}
	.st62{fill:#777375;}
	.st63{fill:#4F9E34;}
	.st64{fill:#D96930;}
	.st65{fill:#717472;}
	.st66{fill:#242E5C;}
	.st67{fill:#D0043C;}
</style>
<g id="black_x5F_bg" class="st0">
	<rect x="0.0001" y="0" class="st1" width="220.56378" height="108.19843"/>
</g>
<g id="logos">
	<g>
		<path class="st2" d="M173.80362,84.92854h-62.59747V22.32981h62.59747V84.92854z M109.34771,22.32981H46.76016v62.58855h62.58755
			V22.32981z"/>
		<path class="st3" d="M139.60338,36.41156l-0.63715,2.97341c-0.13651-0.03503-0.36789-0.05951-0.58713-0.05951
			c-2.205,0-3.7739,1.78926-3.7739,3.79872c0,1.23364,0.76166,2.00713,1.91692,2.00713c0.69093,0,1.27823-0.2761,1.60178-0.65804
			c0.10481,0.40413,0.49652,0.61257,0.95897,0.61257h0.20535l1.85579-8.67427H139.60338z M138.26401,42.70737
			c-0.09334,0.41681-0.22984,0.77342-0.43829,1.01569c-0.20964,0.23174-0.46245,0.36928-0.83154,0.36928
			c-0.51949,0-0.84099-0.35764-0.84099-1.01482c0-1.33942,0.96686-2.78064,2.14456-2.78064
			c0.17349,0,0.37971,0.03399,0.46141,0.07956L138.26401,42.70737z M134.10971,37.0507c-0.52875,0-1.04822,0.48566-1.04822,1.02843
			c0,0.40414,0.2874,0.68041,0.6803,0.68041c0.53011,0,1.06107-0.48455,1.06107-1.0263
			C134.80286,37.32995,134.50346,37.0507,134.10971,37.0507z M129.00549,43.56222c-0.056,0.2529-0.39786,1.56909,0.98331,1.56909
			h0.20691l1.61153-7.69233h-1.5235L129.00549,43.56222z M131.97527,43.56222c-0.05789,0.2529-0.39839,1.56909,0.98141,1.56909
			h0.20535l1.21313-5.70095h-1.52451L131.97527,43.56222z M126.45777,39.32546c-0.80843,0-1.52453,0.26677-2.06646,0.71748
			c-0.85175,0.69309-1.34811,1.83467-1.34811,3.0463c0,1.35114,0.92061,2.04207,2.20398,2.04207
			c0.80655,0,1.52265-0.26445,2.06337-0.7162c0.85484-0.69205,1.35102-1.84442,1.35102-3.05674
			C128.66158,40.00801,127.73908,39.32546,126.45777,39.32546z M126.39765,43.57404
			c-0.25298,0.32253-0.57446,0.54262-0.95657,0.54262c-0.61163,0-0.85175-0.42743-0.85175-1.02742
			c0-0.64547,0.24013-1.60506,0.71507-2.20497c0.25315-0.32175,0.58747-0.54194,0.96925-0.54194
			c0.61026,0,0.8413,0.42641,0.8413,1.02631C127.11495,42.01522,126.87328,42.97396,126.39765,43.57404z M144.43578,39.32546
			c-2.10258,0-3.77408,1.69823-3.77408,3.80933c0,1.23476,0.70241,1.99652,1.85663,1.99652
			c0.69418,0,1.28029-0.2761,1.60503-0.65804c0.10381,0.40413,0.50151,0.61257,0.96309,0.61257h0.20418l1.11295-5.20483
			C145.83012,39.53082,145.15616,39.32546,144.43578,39.32546z M144.26089,42.70737
			c-0.09181,0.41681-0.21872,0.77342-0.42632,1.01569c-0.20844,0.23174-0.47408,0.36928-0.84215,0.36928
			c-0.5195,0-0.78616-0.34392-0.78616-1.00309c0-1.17755,0.85484-2.79237,2.19336-2.79237c0.1384,0,0.26564,0.03399,0.35745,0.08992
			L144.26089,42.70737z M167.25111,39.2811c-0.7334,0-1.3577,0.33124-1.75659,0.77238l-0.13858-0.66852h-1.16502
			c0,0.4718-0.07297,1.13192-0.28465,2.11924l-0.72911,3.47699h1.52263l0.54295-2.52672
			c0.14919-0.70379,0.40952-2.04319,1.47794-2.04319c0.53044,0,0.80653,0.33862,0.63817,1.14158l-0.40849,1.96167
			c-0.05823,0.25614-0.40419,1.5713,0.98212,1.5713h0.20296l0.76611-3.59233C169.23038,39.9562,168.41168,39.2811,167.25111,39.2811
			z M150.73958,41.95827c-0.14798,0.70456-0.39786,2.04209-1.47606,2.04209c-0.96394,0-0.65701-1.06134-0.601-1.33753
			l0.68134-3.23248h-1.52246l-0.68031,3.18598c-0.06886,0.33424-0.13959,0.68032-0.13959,0.96798
			c0,0.41605,0.15002,0.7515,0.38074,1.00439c-0.8896,0.22001-1.30359,0.68134-1.30359,1.3394
			c0,0.96928,0.95761,1.54589,2.23894,1.54589c1.0965,0,1.96077-0.36929,2.5162-0.99248
			c0.44977-0.50691,0.72792-1.19983,0.93449-2.17963l1.03792-4.87153h-1.52264L150.73958,41.95827z M150.0603,45.01715
			c-0.11543,0.44952-0.32491,0.85496-0.62328,1.14167c-0.28757,0.27722-0.68134,0.42743-1.10884,0.42743
			c-0.52907,0-0.96703-0.25605-0.96703-0.70361c0-0.5778,0.56384-0.71638,1.39453-0.80844
			c0.58817-0.06868,1.10799-0.20733,1.40942-0.47496L150.0603,45.01715z M161.06839,39.2811
			c-0.73323,0-1.35857,0.33124-1.75644,0.77238l-0.1413-0.66852h-1.16331c0,0.4718-0.07399,1.13192-0.28328,2.11924
			l-0.73033,3.47699h1.52385l0.54277-2.52672c0.14815-0.70379,0.40849-2.04319,1.47708-2.04319
			c0.5289,0,0.80553,0.33862,0.63887,1.14158l-0.40797,1.96167c-0.05705,0.25614-0.40645,1.5713,0.97935,1.5713h0.20535
			l0.76595-3.59233C163.0473,39.9562,162.22827,39.2811,161.06839,39.2811z M155.99399,36.15447l-1.54355,7.40673
			c-0.05719,0.2529-0.39803,1.57011,0.98264,1.57011h0.20758l1.87906-8.97684H155.99399z M122.06574,36.11319l-0.68443,3.28336
			l-0.00101,0.00728c-1.15457,0.22008-2.02123,0.42434-2.85158,0.65822l0.13837-0.6655l0.6858-3.28336h-1.52264l-0.95435,4.573
			c-0.21873,0.09531-0.44738,0.20433-0.71423,0.34076c-0.41245,0.21366-0.55872,0.53233-0.60513,0.68665
			c-0.03185,0.10388-0.03802,0.29529,0.0137,0.44558c0.36705-0.14498,0.72792-0.28157,1.08556-0.41278l-0.3691,1.77351
			c-0.05823,0.25281-0.39822,1.57022,0.97952,1.57022h0.20966l0.78925-3.77629c0.85175-0.23071,1.7225-0.42957,2.85259-0.64761
			l-0.01473,0.07082l-0.57993,2.78286c-0.05825,0.25281-0.39908,1.57022,0.97969,1.57022h0.20845l1.87804-8.97694H122.06574z
			 M130.83095,59.29528l-1.23198-2.8847l3.85594-4.6111h-1.71207l-2.67448,3.35939l-1.4245-3.35939h-1.95324l1.93423,4.5169
			l-4.025,4.6886h1.72698l2.82896-3.41771l0.81734,1.9173c0.24869,0.56933,0.43675,0.91224,0.7012,1.17669
			c0.34186,0.32372,0.79866,0.49397,1.34932,0.49397c0.19527,0,0.3965-0.02946,0.58611-0.07707l-0.72623-1.69739
			C130.86555,59.36926,130.84912,59.33638,130.83095,59.29528z M137.90845,51.62701c0,0-1.09293-0.06449-3.57095,0.47829
			l-0.62686,2.96794h-0.00412l-0.5753,2.7045h-0.00412l-1.07304,5.06303c-0.07228,0.31242-0.48677,1.92347,1.20166,1.92347h0.25111
			l0.80293-3.77638c0.39993,0.11237,0.98518,0.18739,1.41884,0.18739c3.43341,0,5.65538-3.03678,5.65538-6.34102
			C141.38397,52.65331,139.97899,51.62701,137.90845,51.62701z M135.61436,59.9225c-0.37988,0-0.81493-0.05719-1.04341-0.15141
			l0.42561-1.99335h-0.0065l0.96513-4.5753c0.39993-0.17025,1.06413-0.28552,1.55759-0.28552
			c1.33064,0,1.97328,0.66678,1.97328,2.01108C139.48607,57.47321,137.93053,59.9225,135.61436,59.9225z M147.40125,53.2408
			l0.34084-1.53749c-0.13223-0.03819-0.45731-0.0763-0.64622-0.0763c-1.17564,0-2.01181,0.68255-2.53967,1.59462v-1.42213h-1.38495
			c0,0,0.02124,0.41483-0.11766,1.34573l-1.10336,5.17959l-0.17453,0.79268c-0.06972,0.31071-0.48677,1.92244,1.20303,1.92244
			h0.25179l0.40523-1.90256h0.00189l0.4604-2.13929c0.28465-1.32912,0.56932-2.56277,1.25168-3.24549
			c0.36087-0.35934,0.8168-0.56797,1.46236-0.56797C147.0217,53.18462,147.30602,53.22163,147.40125,53.2408z M150.37357,57.45607
			c2.77005,0,4.5741-1.55761,4.5741-3.43749c0-1.63169-1.36711-2.39157-2.86646-2.39157c-3.15099,0-5.52419,3.20721-5.52419,6.20794
			c0,2.12455,1.50038,3.34029,3.56992,3.34029c1.15662,0,2.44838-0.35969,3.26622-0.87285l0.28381-1.40414
			c-0.75876,0.49328-2.03049,0.96705-3.07475,0.96705c-1.36815,0-2.14471-0.77761-2.14471-2.10744
			c0-0.17059,0.01559-0.41587,0.03459-0.54946C149.00644,57.36085,149.80408,57.45607,150.37357,57.45607z M152.02501,52.91692
			c0.75995,0,1.1777,0.4561,1.1777,1.12171c0,1.32681-1.08229,2.16265-2.9254,2.16265c-0.49223,0-1.23267-0.0942-1.53651-0.19081
			C149.15768,54.58963,150.41074,52.91692,152.02501,52.91692z M159.08673,55.65216c-0.98793-0.4563-1.61223-0.8361-1.61223-1.44329
			c0-0.74095,0.79678-1.32879,2.0495-1.32879c0.75635,0,1.66942,0.22506,2.25656,0.53096l0.26668-1.27182
			c-0.56915-0.28364-1.61342-0.51221-2.4294-0.51221c-2.26015,0-3.91245,1.15751-3.91245,2.84734
			c0,1.32923,1.02629,1.97459,2.12845,2.46856c1.25288,0.56934,1.80113,0.89204,1.80113,1.57441
			c0,0.77796-0.7567,1.38737-2.10583,1.38737c-0.93089,0-1.97327-0.24767-2.73186-0.79783l-0.28758,1.32879
			c0.81752,0.5111,1.93921,0.73959,2.92421,0.73959c2.31616,0,3.98593-1.08112,3.98593-2.94257
			C161.41985,56.94291,160.5282,56.33454,159.08673,55.65216z M166.55162,52.88009c0.75755,0,1.67166,0.22506,2.25674,0.53096
			l0.2677-1.27182c-0.57018-0.28364-1.61444-0.51221-2.4292-0.51221c-2.25897,0-3.91177,1.15751-3.91177,2.84734
			c0,1.32923,1.02628,1.97459,2.1257,2.46856c1.25272,0.56934,1.80421,0.89204,1.80421,1.57441
			c0,0.77796-0.75908,1.38737-2.106,1.38737c-0.93517,0-1.9762-0.24767-2.73495-0.79783l-0.28773,1.32879
			c0.81786,0.5111,1.93918,0.73959,2.92455,0.73959c2.31395,0,3.98987-1.08112,3.98987-2.94257
			c0-1.28975-0.89629-1.89813-2.33722-2.5805c-0.98604-0.4563-1.61137-0.8361-1.61137-1.44329
			C164.50214,53.46793,165.29686,52.88009,166.55162,52.88009z M118.29149,48.55854h5.71138l-0.00104,0.00101h1.53755
			c-0.01712,0.14294-0.05069,0.28468-0.09727,0.41168c-0.30163,0.79671-0.77367,0.97029-1.57865,0.97662l-2.31719-0.00205
			l-0.00104-0.00223h-1.5641l-0.81767,3.83435h2.74368l0,0l1.50877,0.00103c-0.01919,0.1401-0.04881,0.28175-0.09539,0.4025
			c-0.29632,0.78592-0.7639,0.95514-1.55022,0.96165h-0.30333v0.00309h-2.59124l-0.91308,4.48959h3.93799l0,0h0.19354v0.00205
			h1.53857c-0.02003,0.14284-0.05188,0.28671-0.09968,0.40969c-0.29922,0.79885-0.77417,0.97219-1.57729,0.97869l-2.3196-0.00205
			v-0.00103h-2.17194v-0.00342h-0.05807c-1.78725,0-1.34519-1.70459-1.26983-2.03172L118.29149,48.55854z M84.79246,71.37185
			c0.52702,0,0.9576,0.42923,0.9576,0.95985c0,0.52788-0.43057,0.95746-0.9576,0.95746c-0.52865,0-0.96001-0.42958-0.96001-0.95746
			C83.83244,71.80108,84.26381,71.37185,84.79246,71.37185z M84.79443,73.14322c0.43906,0,0.7704-0.35661,0.7704-0.81152
			c0-0.45869-0.33134-0.817-0.7704-0.817c-0.44729,0-0.77692,0.35831-0.77692,0.817
			C84.01751,72.78661,84.34714,73.14322,84.79443,73.14322z M84.42429,71.76716h0.43085c0.25821,0,0.3858,0.10585,0.3858,0.31653
			c0,0.18293-0.11648,0.31071-0.29005,0.31071l0.31762,0.49465h-0.19225l-0.31567-0.49465H84.6097v0.49465h-0.18542V71.76716z
			 M84.6097,72.25085h0.21642c0.14369,0,0.23121-0.02843,0.23121-0.17641c0-0.1247-0.11431-0.16203-0.23121-0.16203H84.6097
			V72.25085z M109.34769,42.59647c-8.02766,0.28048-15.48267,1.3957-22.87135,3.37867
			c-3.18539,11.37372-5.40376,23.47358-6.40913,34.33713c-0.28852,0.11754-1.29153,0.26347-1.82591,0.26347
			c-2.52289,0-3.97377-1.00988-3.97377-3.40882c0-5.82109,2.28122-17.96823,5.16022-29.03788
			c-3.50809,1.20127-7.0304,2.60224-10.60038,4.19808c-1.64843,7.00548-2.81747,14.28455-3.39931,21.42243
			c-0.32252,0.15552-1.22523,0.28263-1.78219,0.28263c-2.02469,0-3.42714-1.34662-3.42714-3.64109
			c0-3.87125,0.75649-9.25351,1.91297-14.86706c-3.02242,1.53194-6.09007,3.19885-9.22331,5.0079
			c-0.31702-0.59848-0.41108-1.41067-0.34222-1.87621c0.09976-0.67653,0.5182-2.12144,2.12161-3.27313
			c3.13033-2.25114,4.91177-3.12663,8.62811-5.11904c1.64818-6.76083,3.71832-13.28095,5.60382-17.34993
			c1.19765-2.5853,2.72988-3.58334,5.36032-3.58334c0.69403,0,1.65231,0.16392,2.15022,0.32277
			c-2.40216,5.21058-4.48608,11.05249-6.19934,17.2082c3.39537-1.5273,6.96305-2.92501,10.68018-4.15474
			c1.70264-5.89827,3.50378-11.07019,5.10899-14.19495c0.96786-1.88468,2.4554-2.87159,4.67326-2.87159
			c1.0299,0,2.16236,0.1628,2.81083,0.40466c-1.99554,4.49299-3.80713,9.41623-5.42501,14.55498
			c6.61839-1.69736,13.67004-2.82697,21.26854-3.19106V42.59647z M169.94093,50.18536c0.37663,0,0.68408,0.30478,0.68408,0.68255
			c0,0.37758-0.30745,0.68407-0.68408,0.68407c-0.37714,0-0.68442-0.30649-0.68442-0.68407
			C169.25652,50.49014,169.5638,50.18536,169.94093,50.18536z M169.94128,51.44964c0.31703,0,0.55304-0.25246,0.55304-0.58173
			c0-0.32672-0.23601-0.57996-0.55304-0.57996c-0.31772,0-0.55341,0.25324-0.55341,0.57996
			C169.38788,51.19719,169.62357,51.44964,169.94128,51.44964z M169.68007,50.46625h0.30678
			c0.18513,0,0.27591,0.07494,0.27591,0.22575c0,0.13008-0.0834,0.22095-0.20877,0.22095l0.22778,0.3548h-0.13701l-0.22559-0.3548
			h-0.10925v0.3548h-0.12985V50.46625z M169.80992,50.81156h0.15515c0.10074,0,0.16478-0.02022,0.16478-0.1259
			c0-0.09019-0.07999-0.1163-0.16478-0.1163h-0.15515V50.81156z"/>
	</g>
	
		<rect x="195.78261" y="57.19692" transform="matrix(-1.836970e-16 1 -1 -1.836970e-16 463.33841 -100.47289)" class="st31" width="172.24609" height="248.47168"/>
</g>
<g id="Layer_3">
</g>
</svg>
