<?xml version="1.0" encoding="UTF-8" standalone="no"?>
<!-- Created with Inkscape (http://www.inkscape.org/) -->

<svg
   xmlns:dc="http://purl.org/dc/elements/1.1/"
   xmlns:cc="http://creativecommons.org/ns#"
   xmlns:rdf="http://www.w3.org/1999/02/22-rdf-syntax-ns#"
   xmlns:svg="http://www.w3.org/2000/svg"
   xmlns="http://www.w3.org/2000/svg"
   xmlns:sodipodi="http://sodipodi.sourceforge.net/DTD/sodipodi-0.dtd"
   xmlns:inkscape="http://www.inkscape.org/namespaces/inkscape"
   id="svg2985"
   version="1.1"
   inkscape:version="0.48.5 r10040"
   width="1000.0001"
   height="190.51157"
   xml:space="preserve"
   sodipodi:docname="HGI_Brand_Fact_Sheet.pdf"><metadata
     id="metadata2991"><rdf:RDF><cc:Work
         rdf:about=""><dc:format>image/svg+xml</dc:format><dc:type
           rdf:resource="http://purl.org/dc/dcmitype/StillImage" /><dc:title></dc:title></cc:Work></rdf:RDF></metadata><defs
     id="defs2989"><clipPath
       clipPathUnits="userSpaceOnUse"
       id="clipPath2999"><path
         d="m 0,309.429 612,0 L 612,792 0,792 0,309.429 z"
         id="path3001"
         inkscape:connector-curvature="0" /></clipPath><clipPath
       clipPathUnits="userSpaceOnUse"
       id="clipPath3013"><path
         d="m 0,297.266 612,0 L 612,792 0,792 0,297.266 z"
         id="path3015"
         inkscape:connector-curvature="0" /></clipPath><clipPath
       clipPathUnits="userSpaceOnUse"
       id="clipPath3021"><path
         d="m 47.9758,909.315 515.3512,0 0,-596.665 -515.3512,0 0,596.665 z"
         id="path3023"
         inkscape:connector-curvature="0" /></clipPath><clipPath
       clipPathUnits="userSpaceOnUse"
       id="clipPath3025"><path
         d="m 47.976,312.65 515.351,0 0,596.665 -515.351,0 0,-596.665 z"
         id="path3027"
         inkscape:connector-curvature="0" /></clipPath><clipPath
       clipPathUnits="userSpaceOnUse"
       id="clipPath3047"><path
         d="m -69.5002,976.186 424.3452,0 0,-602.565 -424.3452,0 0,602.565 z"
         id="path3049"
         inkscape:connector-curvature="0" /></clipPath><clipPath
       clipPathUnits="userSpaceOnUse"
       id="clipPath3051"><path
         d="m -69.5,373.621 424.346,0 0,602.565 -424.346,0 0,-602.565 z"
         id="path3053"
         inkscape:connector-curvature="0" /></clipPath><clipPath
       clipPathUnits="userSpaceOnUse"
       id="clipPath3073"><path
         d="m -99,996.81 640.885,0 0,-642.623 -640.885,0 0,642.623 z"
         id="path3075"
         inkscape:connector-curvature="0" /></clipPath><clipPath
       clipPathUnits="userSpaceOnUse"
       id="clipPath3077"><path
         d="m -99,354.187 640.885,0 0,642.623 -640.885,0 0,-642.623 z"
         id="path3079"
         inkscape:connector-curvature="0" /></clipPath><clipPath
       clipPathUnits="userSpaceOnUse"
       id="clipPath3105"><path
         d="m -73.494,909.315 633.244,0 0,-583.644 -633.244,0 0,583.644 z"
         id="path3107"
         inkscape:connector-curvature="0" /></clipPath><clipPath
       clipPathUnits="userSpaceOnUse"
       id="clipPath3109"><path
         d="m -73.494,325.671 633.244,0 0,583.644 -633.244,0 0,-583.644 z"
         id="path3111"
         inkscape:connector-curvature="0" /></clipPath><clipPath
       clipPathUnits="userSpaceOnUse"
       id="clipPath3179"><path
         d="m 418.659,19.223 159.34,0 0,46.378 -159.34,0 0,-46.378 z"
         id="path3181"
         inkscape:connector-curvature="0" /></clipPath></defs><sodipodi:namedview
     pagecolor="#ffffff"
     bordercolor="#666666"
     borderopacity="1"
     objecttolerance="10"
     gridtolerance="10"
     guidetolerance="10"
     inkscape:pageopacity="0"
     inkscape:pageshadow="2"
     inkscape:window-width="1046"
     inkscape:window-height="998"
     id="namedview2987"
     showgrid="false"
     fit-margin-left="0.5"
     fit-margin-bottom="0.5"
     fit-margin-top="0.5"
     fit-margin-right="0.5"
     inkscape:zoom="0.52741729"
     inkscape:cx="455.15227"
     inkscape:cy="175.8144"
     inkscape:window-x="867"
     inkscape:window-y="16"
     inkscape:window-maximized="0"
     inkscape:current-layer="g2993" /><g
     id="g2993"
     inkscape:groupmode="layer"
     inkscape:label="HGI_Brand_Fact_Sheet"
     transform="matrix(1.25,0,0,-1.25,-522.82375,234.22906)"><path
       d="m 418.659,35.374 153.30957,0 0,151.60925 -153.30957,0 0,-151.60925 z"
       style="fill:#c62e40;fill-opacity:1;fill-rule:nonzero;stroke:none"
       id="path3163"
       inkscape:connector-curvature="0" /><g
       id="g3165"
       transform="matrix(5.0156897,0,0,5.0156897,622.97162,128.00426)"><path
         d="m 0,0 0,0.548 1.434,0 0,4.871 -3.834,0 0,-4.871 1.465,0 0,-0.548 -5.249,0 0,0.548 1.339,0 0,9.916 -1.339,0 0,0.545 5.249,0 0,-0.545 -1.465,0 0,-4.384 3.834,0 0,4.384 -1.434,0 0,0.545 5.216,0 0,-0.545 -1.357,0 0,-9.916 1.357,0 L 5.216,0 0,0 z"
         style="fill:#334b98;fill-opacity:1;fill-rule:nonzero;stroke:none"
         id="path3167"
         inkscape:connector-curvature="0" /></g><path
       d="m 659.90364,183.23152 11.94236,0 0,-6.55551 -11.94236,0 0,6.55551 z m -5.86835,-55.22776 0,2.6533 6.41506,0 0,34.34744 -6.41506,0 0,2.72854 18.27717,0 0,-37.07598 6.11413,0 0,-2.6533 -24.3913,0 z"
       style="fill:#334b98;fill-opacity:1;fill-rule:nonzero;stroke:none"
       id="path3169"
       inkscape:connector-curvature="0" /><g
       id="g3171"
       transform="matrix(5.0156897,0,0,5.0156897,681.00114,128.00426)"><path
         d="m 0,0 0,0.548 1.326,0 0,9.962 -1.326,0 0,0.513 3.713,0 0,-10.475 1.247,0 L 4.96,0 0,0 z"
         style="fill:#334b98;fill-opacity:1;fill-rule:nonzero;stroke:none"
         id="path3173"
         inkscape:connector-curvature="0" /></g><g
       id="g3175"
       transform="matrix(5.0156897,0,0,5.0156897,-1681.2046,-142.05101)"><g
         id="g3177"
         clip-path="url(#clipPath3179)"><g
           id="g3183"
           transform="translate(479.6478,53.8421)"><path
             d="m 0,0 c -1.091,0 -1.994,0.495 -1.994,1.697 l 0,5.697 -1.296,0 0,0.527 1.296,0 0,3.06 2.227,0 0,-3.06 1.844,0 0,-0.527 -1.844,0 0,-6.868 1.874,0 L 2.107,0 0,0 z"
             style="fill:#334b98;fill-opacity:1;fill-rule:nonzero;stroke:none"
             id="path3185"
             inkscape:connector-curvature="0" /></g><g
           id="g3187"
           transform="translate(486.5329,61.4683)"><path
             d="m 0,0 c 2.041,0 1.855,-2.08 1.871,-3.515 l 0,-0.501 c 0.015,-1.36 -0.016,-3.375 -1.857,-3.375 -0.684,0 -1.232,0.281 -1.573,0.874 -0.36,0.642 -0.327,2.218 -0.327,2.922 C -1.886,-2.186 -1.95,0 0,0 m 4.45,-3.828 c 0,2.578 -1.908,4.337 -4.436,4.337 -2.417,0 -4.536,-1.587 -4.536,-4.135 0,-2.642 2.088,-4.216 4.6,-4.216 2.387,0 4.372,1.546 4.372,4.014"
             style="fill:#334b98;fill-opacity:1;fill-rule:nonzero;stroke:none"
             id="path3189"
             inkscape:connector-curvature="0" /></g><g
           id="g3191"
           transform="translate(497.4296,53.8421)"><path
             d="m 0,0 0,0.526 1.058,0 0,4.82 c 0,0.873 0,1.949 -1.153,1.949 -0.902,0 -1.763,-0.889 -1.98,-1.716 -0.094,-0.389 -0.077,-0.811 -0.077,-1.2 l 0,-3.853 1.216,0 0,-0.526 -4.862,0 0,0.526 1.277,0 0,6.847 -1.277,0 0,0.546 3.646,0 0,-1.216 c 0.485,0.578 0.809,0.889 1.512,1.169 0.451,0.188 0.95,0.296 1.434,0.296 0.358,0 0.732,-0.062 1.078,-0.153 C 3.165,7.639 3.478,6.797 3.478,5.579 l 0,-5.053 1.25,0 L 4.728,0 0,0 z"
             style="fill:#334b98;fill-opacity:1;fill-rule:nonzero;stroke:none"
             id="path3193"
             inkscape:connector-curvature="0" /></g><g
           id="g3195"
           transform="translate(465.9061,42.5362)"><path
             d="m 0,0 0,-4.039 c -1.723,-2.01 -3.468,-2.852 -6.18,-2.852 -4.731,0 -7.128,3.492 -7.128,7.893 0,2.579 0.689,4.851 2.686,6.594 1.398,1.236 3.199,1.792 5.043,1.792 1.267,0 2.266,-0.377 3.326,-1 l 1.017,0.754 0.55,0 0,-4.372 -0.926,0 c -0.419,2.429 -0.929,3.817 -3.745,3.817 -1.754,0 -3.066,-0.728 -3.554,-2.447 -0.447,-1.479 -0.512,-3.153 -0.512,-4.696 0,-1.488 0.065,-3.011 0.31,-4.492 0.268,-1.809 1.066,-3.154 3.111,-3.154 0.867,0 1.446,0.11 2.044,0.772 0.377,0.441 0.513,0.73 0.513,1.305 l 0,4.125 -2.356,0 0,0.911 7.265,0 L 1.464,0 0,0 z"
             style="fill:#334b98;fill-opacity:1;fill-rule:nonzero;stroke:none"
             id="path3197"
             inkscape:connector-curvature="0" /></g><g
           id="g3199"
           transform="translate(474.7899,41.8876)"><path
             d="M 0,0 0,-2.064 C 0,-2.883 -0.09,-3.592 -0.757,-4.146 -1.09,-4.412 -1.514,-4.59 -1.936,-4.59 c -1.178,0 -1.847,0.863 -1.847,1.973 0,2.241 2.003,2.507 3.783,2.617 m 4.987,-5.94 0,0.752 -1.795,0 0,7.272 0,0.09 c 0,1.485 -0.354,2.327 -1.795,2.949 -0.822,0.36 -1.82,0.495 -2.686,0.495 -1.735,0 -4.731,-0.74 -4.731,-2.936 0,-0.865 0.643,-1.485 1.508,-1.485 0.865,0 1.532,0.643 1.532,1.508 0,0.622 -0.535,1.02 -0.535,1.441 0,0.601 1.223,0.777 1.624,0.777 C -0.312,4.923 0,4.302 0,2.883 L 0,0.755 C -1.758,0.577 -3.938,0.377 -5.4,-0.709 -6.308,-1.375 -6.949,-2.35 -6.949,-3.526 c 0,-1.863 1.44,-2.699 3.166,-2.699 1.581,0 2.848,0.685 3.871,1.855 C 0.199,-4.634 0.31,-4.901 0.464,-5.123 1.041,-5.895 2.327,-5.94 3.192,-5.94 l 1.795,0 z"
             style="fill:#334b98;fill-opacity:1;fill-rule:nonzero;stroke:none"
             id="path3201"
             inkscape:connector-curvature="0" /></g><g
           id="g3203"
           transform="translate(489.4577,43.5045)"><path
             d="m 0,0 c -0.909,0 -1.707,0.62 -1.707,1.573 0,0.71 0.465,1.087 0.465,1.265 0,0.177 -0.22,0.266 -0.377,0.266 -0.354,0 -1.043,-0.867 -1.22,-1.108 -0.8,-1.022 -1.087,-2.416 -1.087,-3.7 l 0,-5.076 2.242,0 0,-0.776 -7.45,0 0,0.776 1.816,0 0,9.706 -1.816,0 0,0.774 5.229,0 0,-2.036 c 0.844,1.328 1.62,2.388 3.352,2.388 1.328,0 2.348,-0.86 2.348,-2.234 C 1.795,0.733 1.085,0 0,0"
             style="fill:#334b98;fill-opacity:1;fill-rule:nonzero;stroke:none"
             id="path3205"
             inkscape:connector-curvature="0" /></g><g
           id="g3207"
           transform="translate(497.8706,46.5943)"><path
             d="m 0,0 c 0.979,0 1.847,-0.796 2.27,-1.615 0.49,-0.95 0.49,-2.432 0.49,-3.494 0,-0.797 -0.023,-2.123 -0.333,-2.898 -0.401,-0.95 -1.359,-2.058 -2.471,-2.058 -2.228,0 -2.339,3.496 -2.339,5.066 C -2.383,-3.385 -2.314,0 0,0 m 7.838,-10.619 0,0.755 -1.774,0 0,15.127 -5.195,0 0,-0.749 1.78,0 0,-5.356 c -0.934,1.131 -1.938,1.753 -3.451,1.753 -0.757,0 -1.512,-0.222 -2.155,-0.555 -2.055,-1.087 -2.982,-3.253 -2.982,-5.51 0,-3.185 1.966,-5.8 5.27,-5.8 1.693,0 2.425,0.713 3.318,2.02 l 0,-1.685 5.189,0 z"
             style="fill:#334b98;fill-opacity:1;fill-rule:nonzero;stroke:none"
             id="path3209"
             inkscape:connector-curvature="0" /></g><g
           id="g3211"
           transform="translate(513.5892,43.0882)"><path
             d="M 0,0 -4.082,0 C -4.059,1.772 -4.325,3.811 -1.906,3.811 -0.4,3.811 0,2.879 0,1.572 L 0,0 z m 3.549,-0.776 c -0.224,1.419 -0.446,2.46 -1.444,3.545 -1.02,1.106 -2.526,1.653 -4.011,1.653 -3.416,0 -5.937,-2.474 -5.937,-5.888 0,-3.57 2.655,-5.981 6.159,-5.981 2.526,0 3.989,1.277 5.098,3.409 L 2.748,-3.703 C 1.775,-5.28 0.664,-6.611 -1.354,-6.611 c -2.618,0 -2.794,2.44 -2.794,4.437 l 0,1.398 7.697,0 z"
             style="fill:#334b98;fill-opacity:1;fill-rule:nonzero;stroke:none"
             id="path3213"
             inkscape:connector-curvature="0" /></g><g
           id="g3215"
           transform="translate(525.9729,35.9481)"><path
             d="m 0,0 0,0.751 1.51,0 0,6.845 c 0,1.241 0,2.77 -1.643,2.77 -1.282,0 -2.502,-1.262 -2.813,-2.437 C -3.078,7.375 -3.057,6.777 -3.057,6.224 l 0,-5.473 1.729,0 0,-0.751 -6.911,0 0,0.751 1.82,0 0,9.725 -1.82,0 0,0.778 5.182,0 0,-1.728 c 0.688,0.819 1.153,1.262 2.15,1.661 0.643,0.266 1.351,0.421 2.037,0.421 0.511,0 1.044,-0.088 1.531,-0.221 1.842,-0.533 2.284,-1.73 2.284,-3.458 l 0,-7.178 1.775,0 L 6.72,0 0,0 z"
             style="fill:#334b98;fill-opacity:1;fill-rule:nonzero;stroke:none"
             id="path3217"
             inkscape:connector-curvature="0" /></g><g
           id="g3219"
           transform="translate(536.4296,35.9481)"><path
             d="m 0,0 0,0.777 1.861,0 0,14.091 -1.861,0 0,0.777 7.253,0 0,-0.777 -1.864,0 0,-14.091 1.864,0 L 7.253,0 0,0 z"
             style="fill:#334b98;fill-opacity:1;fill-rule:nonzero;stroke:none"
             id="path3221"
             inkscape:connector-curvature="0" /></g><g
           id="g3223"
           transform="translate(552.6902,35.9481)"><path
             d="m 0,0 0,0.751 1.504,0 0,6.845 c 0,1.241 0,2.77 -1.639,2.77 -1.286,0 -2.503,-1.262 -2.814,-2.437 -0.133,-0.554 -0.11,-1.152 -0.11,-1.705 l 0,-5.473 1.729,0 0,-0.751 -6.911,0 0,0.751 1.819,0 0,9.725 -1.819,0 0,0.778 5.182,0 0,-1.728 c 0.688,0.819 1.153,1.262 2.149,1.661 0.643,0.266 1.35,0.421 2.039,0.421 0.51,0 1.041,-0.088 1.53,-0.221 1.842,-0.533 2.282,-1.73 2.282,-3.458 l 0,-7.178 1.775,0 L 6.716,0 0,0 z"
             style="fill:#334b98;fill-opacity:1;fill-rule:nonzero;stroke:none"
             id="path3225"
             inkscape:connector-curvature="0" /></g><g
           id="g3227"
           transform="translate(568.2092,35.9481)"><path
             d="m 0,0 0,0.751 1.506,0 0,6.845 c 0,1.241 0,2.77 -1.639,2.77 -1.284,0 -2.502,-1.262 -2.815,-2.437 -0.131,-0.554 -0.11,-1.152 -0.11,-1.705 l 0,-5.473 1.73,0 0,-0.751 -6.908,0 0,0.751 1.817,0 0,9.725 -1.817,0 0,0.778 5.178,0 0,-1.728 c 0.685,0.819 1.152,1.262 2.148,1.661 0.644,0.266 1.354,0.421 2.04,0.421 0.511,0 1.044,-0.088 1.531,-0.221 1.84,-0.533 2.284,-1.73 2.284,-3.458 l 0,-7.178 1.773,0 L 6.718,0 0,0 z"
             style="fill:#334b98;fill-opacity:1;fill-rule:nonzero;stroke:none"
             id="path3229"
             inkscape:connector-curvature="0" /></g><g
           id="g3231"
           transform="translate(576.1412,43.8393)"><path
             d="m 0,0 c -0.916,0 -1.576,0.655 -1.576,1.572 0,0.91 0.66,1.561 1.576,1.561 0.907,0 1.563,-0.651 1.563,-1.561 C 1.563,0.655 0.907,0 0,0 m 0,-0.298 c 1.028,0 1.859,0.84 1.859,1.87 0,1.023 -0.831,1.86 -1.859,1.86 -1.036,0 -1.874,-0.837 -1.874,-1.86 0,-1.03 0.838,-1.87 1.874,-1.87 m -0.429,1.761 0.457,0 0.602,-0.949 0.309,0 -0.637,0.949 c 0.373,0.032 0.66,0.185 0.66,0.598 0,0.381 -0.188,0.589 -0.748,0.589 l -0.914,0 0,-2.136 0.271,0 0,0.949 z m 0,0.25 0,0.689 0.585,0 c 0.259,0 0.51,-0.041 0.51,-0.336 0,-0.403 -0.419,-0.353 -0.717,-0.353 l -0.378,0 z"
             style="fill:#334b98;fill-opacity:1;fill-rule:nonzero;stroke:none"
             id="path3233"
             inkscape:connector-curvature="0" /></g><g
           id="g3235"
           transform="translate(425.0507,59.7741)"><path
             d="m 0,0 c 0.01,-0.394 -0.3,-0.723 -0.694,-0.734 -0.394,-0.01 -0.724,0.302 -0.734,0.694 -0.01,0.397 0.3,0.724 0.695,0.734 C -0.339,0.706 -0.011,0.394 0,0"
             style="fill:#ffffff;fill-opacity:1;fill-rule:nonzero;stroke:none"
             id="path3237"
             inkscape:connector-curvature="0" /></g><g
           id="g3239"
           transform="translate(430.4009,61.2877)"><path
             d="m 0,0 c -2.083,1.872 -3.551,1.921 -6.704,2.091 0,0 -1.558,0.192 -2.733,0.408 -0.228,0.042 -0.565,0.07 -0.632,-0.028 -0.098,-0.065 -0.069,-0.403 -0.031,-0.63 0.212,-1.177 0.398,-2.734 0.398,-2.734 0.161,-3.155 0.204,-4.624 2.069,-6.712 0,0 5.114,-5.467 9.097,-1.498 0,0 0.291,0.33 0.202,0.602 -0.15,0.449 -2.794,3.004 -3.811,4.041 -1.041,1.063 -2.248,2.008 -2.518,2.08 -0.04,0.013 -0.104,0.029 -0.165,0.007 -0.221,-0.054 -0.369,-0.314 -0.369,-0.314 -0.022,-0.044 -0.071,-0.121 -0.011,-0.268 0.184,-0.394 0.801,-1.192 2.084,-2.481 1.36,-1.365 3.216,-3.027 3.216,-3.027 -2.323,-1.786 -5.843,1.084 -5.843,1.084 -2.282,1.904 -2.968,5.628 -2.796,8.311 2.683,0.158 6.423,-0.531 8.314,-2.811 0,0 1.904,-2.514 1.515,-4.692 -0.01,-0.072 0.01,-0.128 0.034,-0.16 0.35,-0.481 0.957,-0.55 1.428,-0.118 0.037,0.044 0.03,0.051 0.077,0.129 C 3.546,-3.344 0,0 0,0"
             style="fill:#ffffff;fill-opacity:1;fill-rule:nonzero;stroke:none"
             id="path3241"
             inkscape:connector-curvature="0" /></g><g
           id="g3243"
           transform="translate(443.0131,59.0601)"><path
             d="M 0,0 C -0.394,-0.011 -0.721,0.299 -0.734,0.693 -0.742,1.087 -0.432,1.415 -0.038,1.427 0.356,1.435 0.684,1.127 0.696,0.733 0.706,0.339 0.394,0.01 0,0"
             style="fill:#ffffff;fill-opacity:1;fill-rule:nonzero;stroke:none"
             id="path3245"
             inkscape:connector-curvature="0" /></g><g
           id="g3247"
           transform="translate(444.5267,53.7098)"><path
             d="m 0,0 c 1.872,2.081 1.921,3.549 2.091,6.703 0,0 0.194,1.558 0.408,2.733 C 2.541,9.662 2.571,10 2.471,10.067 2.406,10.166 2.068,10.137 1.841,10.097 0.664,9.885 -0.893,9.7 -0.893,9.7 -4.047,9.54 -5.517,9.495 -7.605,7.632 c 0,0 -5.467,-5.114 -1.496,-9.097 0,0 0.328,-0.292 0.6,-0.202 0.451,0.149 3.004,2.794 4.041,3.809 1.063,1.043 2.009,2.249 2.082,2.52 0.011,0.04 0.027,0.104 0.007,0.165 -0.056,0.22 -0.315,0.37 -0.315,0.37 C -2.73,5.218 -2.808,5.268 -2.955,5.205 -3.349,5.022 -4.147,4.406 -5.437,3.122 -6.8,1.763 -8.463,-0.094 -8.463,-0.094 c -1.785,2.323 1.084,5.845 1.084,5.845 1.904,2.281 5.628,2.966 8.311,2.793 0.159,-2.682 -0.529,-6.422 -2.811,-8.312 0,0 -2.514,-1.905 -4.692,-1.514 -0.072,0.009 -0.128,-0.011 -0.16,-0.035 -0.481,-0.352 -0.55,-0.959 -0.117,-1.43 0.044,-0.035 0.051,-0.028 0.128,-0.074 C -3.344,-3.547 0,0 0,0"
             style="fill:#ffffff;fill-opacity:1;fill-rule:nonzero;stroke:none"
             id="path3249"
             inkscape:connector-curvature="0" /></g><g
           id="g3251"
           transform="translate(442.2991,41.0966)"><path
             d="M 0,0 C -0.011,0.394 0.3,0.721 0.693,0.732 1.087,0.742 1.415,0.431 1.427,0.038 1.437,-0.358 1.127,-0.685 0.733,-0.694 0.339,-0.706 0.01,-0.396 0,0"
             style="fill:#ffffff;fill-opacity:1;fill-rule:nonzero;stroke:none"
             id="path3253"
             inkscape:connector-curvature="0" /></g><g
           id="g3255"
           transform="translate(436.9489,39.583)"><path
             d="m 0,0 c 2.081,-1.872 3.549,-1.922 6.703,-2.093 0,0 1.558,-0.193 2.733,-0.409 0.227,-0.04 0.564,-0.069 0.631,0.029 0.098,0.067 0.07,0.404 0.03,0.631 C 9.887,-0.665 9.7,0.892 9.7,0.892 9.54,4.048 9.497,5.515 7.632,7.603 c 0,0 -5.114,5.468 -9.097,1.499 0,0 -0.292,-0.33 -0.202,-0.601 C -1.516,8.05 1.127,5.497 2.142,4.459 3.185,3.397 4.391,2.451 4.662,2.377 4.701,2.367 4.766,2.35 4.827,2.373 5.047,2.425 5.195,2.687 5.195,2.687 5.218,2.729 5.268,2.807 5.206,2.955 5.023,3.348 4.407,4.146 3.122,5.435 1.763,6.801 -0.094,8.462 -0.094,8.462 2.229,10.248 5.751,7.378 5.751,7.378 8.032,5.475 8.717,1.751 8.545,-0.932 5.862,-1.092 2.122,-0.403 0.232,1.879 c 0,0 -1.904,2.514 -1.514,4.691 0.01,0.071 -0.011,0.127 -0.034,0.162 C -1.667,7.211 -2.275,7.28 -2.746,6.847 -2.782,6.804 -2.775,6.796 -2.822,6.72 -3.546,3.344 0,0 0,0"
             style="fill:#ffffff;fill-opacity:1;fill-rule:nonzero;stroke:none"
             id="path3257"
             inkscape:connector-curvature="0" /></g><g
           id="g3259"
           transform="translate(424.3351,41.8117)"><path
             d="M 0,0 C 0.394,0.009 0.721,-0.302 0.733,-0.696 0.743,-1.09 0.432,-1.419 0.038,-1.428 -0.357,-1.438 -0.684,-1.129 -0.694,-0.734 -0.706,-0.34 -0.395,-0.011 0,0"
             style="fill:#ffffff;fill-opacity:1;fill-rule:nonzero;stroke:none"
             id="path3261"
             inkscape:connector-curvature="0" /></g><g
           id="g3263"
           transform="translate(422.8216,47.1604)"><path
             d="m 0,0 c -1.872,-2.083 -1.92,-3.549 -2.093,-6.705 0,0 -0.192,-1.555 -0.406,-2.732 -0.042,-0.227 -0.071,-0.564 0.028,-0.631 0.066,-0.097 0.403,-0.07 0.63,-0.029 1.177,0.211 2.734,0.398 2.734,0.398 3.154,0.159 4.624,0.202 6.712,2.067 0,0 5.467,5.114 1.498,9.097 0,0 -0.33,0.291 -0.602,0.2 C 8.05,1.517 5.497,-1.127 4.46,-2.143 3.396,-3.185 2.451,-4.391 2.379,-4.66 2.369,-4.702 2.351,-4.766 2.373,-4.827 c 0.054,-0.22 0.313,-0.37 0.313,-0.37 0.045,-0.021 0.121,-0.07 0.269,-0.008 0.394,0.184 1.192,0.799 2.481,2.083 1.365,1.36 3.027,3.216 3.027,3.216 1.786,-2.323 -1.084,-5.845 -1.084,-5.845 -1.902,-2.281 -5.629,-2.966 -8.311,-2.794 -0.159,2.682 0.529,6.423 2.811,8.314 0,0 2.514,1.904 4.692,1.513 0.071,-0.01 0.128,0.012 0.161,0.034 0.48,0.351 0.549,0.958 0.116,1.43 C 6.804,2.783 6.797,2.775 6.72,2.82 3.343,3.546 0,0 0,0"
             style="fill:#ffffff;fill-opacity:1;fill-rule:nonzero;stroke:none"
             id="path3265"
             inkscape:connector-curvature="0" /></g></g></g></g></svg>