<?xml version="1.0" encoding="UTF-8" standalone="no"?>
<!-- Generator: Adobe Illustrator 22.0.1, SVG Export Plug-In . SVG Version: 6.00 Build 0)  -->

<svg
   xmlns:dc="http://purl.org/dc/elements/1.1/"
   xmlns:cc="http://creativecommons.org/ns#"
   xmlns:rdf="http://www.w3.org/1999/02/22-rdf-syntax-ns#"
   xmlns:svg="http://www.w3.org/2000/svg"
   xmlns="http://www.w3.org/2000/svg"
   xmlns:sodipodi="http://sodipodi.sourceforge.net/DTD/sodipodi-0.dtd"
   xmlns:inkscape="http://www.inkscape.org/namespaces/inkscape"
   version="1.1"
   id="registry_xA0_Image_1_"
   x="0px"
   y="0px"
   viewBox="0 0 1296 360"
   xml:space="preserve"
   sodipodi:docname="registry.svg"
   inkscape:version="0.92.2 (5c3e80d, 2017-08-06)"
   width="1296"
   height="360"><metadata
     id="metadata92"><rdf:RDF><cc:Work
         rdf:about=""><dc:format>image/svg+xml</dc:format><dc:type
           rdf:resource="http://purl.org/dc/dcmitype/StillImage" /><dc:title></dc:title></cc:Work></rdf:RDF></metadata><defs
     id="defs90" /><sodipodi:namedview
     pagecolor="#ffffff"
     bordercolor="#666666"
     borderopacity="1"
     objecttolerance="10"
     gridtolerance="10"
     guidetolerance="10"
     inkscape:pageopacity="0"
     inkscape:pageshadow="2"
     inkscape:window-width="1920"
     inkscape:window-height="1017"
     id="namedview88"
     showgrid="false"
     inkscape:zoom="0.98209276"
     inkscape:cx="543.43925"
     inkscape:cy="277.68509"
     inkscape:window-x="-8"
     inkscape:window-y="-8"
     inkscape:window-maximized="1"
     inkscape:current-layer="registry_xA0_Image_1_"
     inkscape:measure-start="595.44,462.24"
     inkscape:measure-end="611.28,92.88" /><g
     id="g85"
     transform="matrix(1.1266006,0,0,0.92972621,164.67732,-1.6651527)"><path
       d="m 439,75.2 c 12.9,-0.2 27.2,1.2 41.1,2.4 11.9,1 23,5 34.5,8.2 10.4,2.8 33.1,8.2 33.1,8.2 0,0 0.8,-1.4 1.8,-2.3 4.2,-4 8.4,-8.1 14.7,-8.2 2.8,-0.1 5.4,0.5 7.8,1.8 3.8,2.1 2.6,3.6 2.8,7.8 -0.3,1.9 -0.6,5.1 -1.1,7 -0.2,0.7 -0.2,0.7 -0.2,0.7 0,0 28.2,7 47.3,4.9 13.3,-1.6 22.2,-4 34.6,-9.4 3.5,-1.5 6.5,-4.1 9.4,-6.6 0.5,-0.5 3.7,-2.7 5.1,-3 -0.5,0.9 -3.7,4 -4.4,4.7 -4.4,4.2 -9.9,6.4 -15.5,8.4 -14.7,5.2 -24.6,7.3 -40.1,7.7 -9.1,0.2 -37.2,-5 -37.2,-5 0,0 0.9,-1.6 -3.4,5.5 -3.5,5.7 -8.3,11.3 -12.4,16.4 -7.5,9.3 -16.7,16.9 -26.5,23.7 -2.4,1.7 -7.8,5.4 -7.8,5.4 0,0 -0.6,1.2 -0.8,2.2 -0.5,3.6 -0.3,7.3 0.3,10.9 0.7,4.2 7.5,10.1 12.6,10.5 7.1,0.5 13.7,-3.2 20,-5.6 11.8,-4.4 20.3,-13.7 30,-21.1 5.2,-4 10.4,-8.3 14.9,-13.2 2.5,-2.7 1.7,-5.9 1.3,-9 -0.5,-3.5 1.4,-5.9 3.3,-8.2 1.2,-1.4 3.2,-0.8 4.7,0 2.4,1.2 2.7,3.7 1.7,5.5 -1.9,3.5 -3.3,6.9 -2.8,11.1 0.6,5.9 -3.8,10.2 -5.4,15.5 -1.7,5.9 -4.3,11.6 -4.6,17.9 -0.4,6.2 3.7,10 9.8,8.4 5.5,-1.4 9.6,-5.7 14,-8.8 8.3,-5.8 14,-14.5 22,-20.6 5.2,-3.9 17.6,-10.5 17.6,-10.5 0,0 1.9,-3.6 3.2,-5.7 1.8,-3 4.1,-3.8 6.8,-2.1 2.4,1.5 1.5,4.2 0.7,6.2 -3.8,9.5 -7.7,18.8 -11.6,28.3 -0.5,1.1 -0.8,2.3 -1.1,3.5 -0.3,1.3 -0.8,2.8 0.3,3.7 1.2,1 4.3,0.7 5.5,-0.1 3.3,-2.5 6.8,-6.1 9.9,-8.8 7,-6.8 17.8,-15.4 17.8,-15.4 0,0 5.3,-7.3 8.1,-10.2 4.1,-4.3 8.2,-8.6 14.1,-10.3 1.2,-0.4 2.3,-0.2 3,0.8 0.8,1.1 0.2,2.1 -0.6,2.9 -7.1,7.1 -12.5,15.5 -17.2,24.1 -5.5,10.1 -15.4,32.7 -15.4,32.7 0,0 7,-1.9 11.4,-3.9 14.3,-6.2 23,-9.5 31.3,-15.1 6.5,-4.4 11.9,-10.3 17,-16.5 5.2,-6.4 9.5,-13.3 11.5,-21.3 0.9,-3.7 1.7,-7.6 2.1,-11.3 0.7,-7.6 0.6,-15.4 -1.1,-22.9 -1.5,-7 -3.6,-14.2 -9.5,-18.7 -9.1,-7 -20.6,-9.1 -30.6,1.5 -1,1 -1.9,2.5 -3,3.4 -0.6,0.5 -2.5,1.3 -3.2,0.6 -0.8,-0.7 -0.6,-2.9 -0.1,-3.7 1.1,-1.9 3.3,-3.3 5.2,-4.3 5.7,-3.3 11.9,-5.7 18.4,-4.3 7.8,1.6 15.1,4.4 19.4,12.2 5.6,10.1 6.4,20.8 6.1,31.8 -0.2,5.7 -1,11.2 -2.3,16.6 -1.4,6.3 -4.6,12 -8.6,17.3 -6.3,8.2 -13,16.1 -21.8,21.6 -5.5,3.4 -28.7,14.6 -33.8,16.3 -4.4,1.5 -9.3,3.2 -9.3,3.2 0,0 -9.2,21.8 -12.9,31.2 -2.6,6.6 -4.6,13.4 -7.4,19.9 -3.3,7.8 -6.9,15.4 -9.8,23.4 -2.1,5.6 -4.4,11.1 -7.4,16.3 -3.9,6.7 -8.7,12.7 -13.7,18.7 -4.7,5.8 -10,10.5 -16.7,13.9 -7.1,3.6 -14.4,5.6 -22.4,5.6 -7.8,0 -18,-7.1 -19.6,-14.7 -1.6,-7.6 -2.4,-15.3 -1.5,-23.1 1.2,-11.1 4.9,-20.7 12.2,-29.1 11,-14.2 22.8,-20.3 31.4,-25.5 4.7,-2.8 9.1,-6.1 13.7,-9 5.7,-3.6 22.4,-13.4 28.8,-17 8.1,-4.6 13.5,-7.9 13.5,-7.9 0,0 1,-1.5 1.4,-2.9 3,-9.8 7.7,-18.9 11.6,-28.4 0.7,-1.7 1.6,-3.2 2.3,-4.9 0.2,-0.5 2.8,-5 2.8,-5 0,0 0,0 -2.3,1.9 -6.9,5.6 -19.9,20 -27.3,22.8 -3.3,1.2 -5.8,-0.1 -8.1,-2.1 -2.4,-2.1 -3.2,-4.8 -2.3,-7.8 2.2,-7.8 4.6,-15.5 8.3,-22.7 0.3,-0.5 1.5,-3 1.5,-3 0,0 -2.6,1.1 -3.1,1.3 -5.7,2.7 -10.7,6.5 -15.3,10.6 -8.3,7.4 -15.6,15.8 -24.8,22.2 -3.6,2.5 -7.2,5 -11.6,6 -4.8,1 -11.4,-2.6 -13.6,-6.9 -3.8,-7.4 -2.4,-14.5 0.8,-21.5 0.9,-2 1.8,-4.1 2.7,-6.2 0.3,-0.6 1.4,-3.6 1.4,-3.6 0,0 -2.6,1.8 -3.1,2.2 -3.1,2.6 -6.1,5.4 -9.3,8 -4.7,4 -9.3,8.2 -14.4,11.7 -5.9,4.1 -12.5,7.2 -19.1,10.1 -4.3,1.9 -8.6,3 -13.1,4 -5.4,1.1 -10.2,-0.8 -14.9,-2.9 -6.1,-2.6 -9.6,-6.6 -10.5,-12.8 -0.2,-1.6 -0.2,-3.5 -0.2,-3.5 0,0 -7,2.5 -13,5.5 -24,11.8 -27.6,11.4 -39,12 -3.2,0.2 -6.2,2 -9.4,2.5 -2.9,0.5 -5.6,0.3 -7.5,-2 -1.7,-2 -1.1,-4.5 -0.1,-6.8 0.9,-2.1 1.7,-4.1 2.6,-6.2 0.5,-1.1 1.4,-1.8 2.6,-2.2 0.7,-0.3 1.2,0.2 1.7,0.6 0.5,0.4 0.1,0.9 0,1.3 -0.8,2.5 -3.1,3.7 -4.5,5.7 -1.3,1.9 -3.4,3.9 -1.1,6.2 2.1,2.1 4.7,1.3 7.1,0.1 3.3,-1.7 6.7,-3 9,-6.1 3.4,-4.7 5.5,-10 7.5,-15.3 1.1,-3 2.1,-6 3.1,-9.1 0.2,-0.7 1.2,-3.5 1.2,-3.5 0,0 -2.9,1.4 -3.6,1.9 -6.6,4.2 -12.9,8.7 -19.2,13.3 -6.2,4.6 -12.5,9 -18.8,13.3 -5.4,3.6 -11.4,5.9 -17.6,7.7 -4.8,1.4 -9.9,0.7 -13.8,-2.6 -4.4,-3.7 -5.5,-8.9 -4.3,-14.5 1.8,-8.9 6.8,-16.4 10.8,-24.3 0.4,-0.8 2,-4.1 2,-4.1 0,0 -2.5,0.6 -4,2 -6.9,6.3 -13.2,13.3 -19.6,20.1 -7.3,7.7 -15.6,14.4 -24.8,19.8 -5.9,3.4 -17.2,10.8 -17.2,10.8 0,0 -2.1,5.5 -3,8.4 -4.1,13 -8,26.7 -13.4,39.2 -3.9,8.8 -8.1,17.4 -13.5,25.3 -4.7,6.9 -10.4,12.6 -17.1,17.5 -5.8,4.2 -12.2,7.3 -19.1,9.5 -8.6,2.8 -20.8,0 -25.6,-6.1 -6.1,-7.7 -6.2,-15.8 -3.4,-25 4,-13.3 14.1,-20.9 24,-29 7.8,-6.3 16.3,-11.7 24.9,-16.7 6.5,-3.7 13.1,-7.3 19.3,-11.5 4.8,-3.2 9.6,-6.1 14.9,-8.4 0.4,-0.2 1,-0.4 1,-0.4 0,0 7.7,-20.6 11,-30.8 0.6,-1.7 1.2,-3.4 1.8,-5.1 0.2,-0.7 1.9,-4.8 1.9,-4.8 0,0 -5,4 -6.2,5.1 -4.7,4 -14.1,15.7 -17.6,17.5 -5,2.6 -11.5,3.2 -13.4,-2.1 -1,-2.6 -0.1,-12.4 -0.1,-12.4 0,0 -2.2,0.7 -4.4,1.6 -5.5,2.2 -8.6,6.3 -13,10 -5.9,5 -12.3,9 -19.4,11.6 -7.2,2.7 -15.6,1 -21,-5.9 -3.6,-4.5 -4.7,-11.8 -4.8,-18.1 -1.1,0.4 -1.7,0.5 -3.5,1.1 -6.4,2.3 -11.2,7.1 -16.7,10.8 -4.7,3.1 -9.4,6.4 -15,7.4 -2.7,0.5 -6,0.1 -8.2,-1.7 -5.4,-4.4 -5.1,-9.9 -3.6,-15.8 1.2,-4.4 3,-8.7 4.6,-13 1.2,-3.2 2.4,-6.4 3.5,-9.7 0.2,-0.5 1.3,-4.6 1.3,-4.6 0,0 -2.6,3.4 -2.9,3.8 -5.1,6.5 -10.8,12.4 -16.4,18.4 -5.3,5.6 -11.5,9.8 -18,13.7 -4.7,2.8 -10.2,3.6 -15.9,3.3 -4,-0.2 -7.7,-0.9 -11.4,-2.3 -1.8,-0.7 -3.1,-1.9 -4.6,-3 -3.3,-2.5 -6.8,-4.9 -10.1,-7.5 -1.4,-1.1 -2.4,-2.5 -1.9,-4.5 0.2,-0.9 1,-1.3 1.9,-1.4 2,-0.1 3,1.2 3.8,2.8 8.3,15.2 26.8,18.4 39.8,10.2 13.4,-8.4 23.7,-21.3 33.7,-33.2 4.1,-4.8 2.6,-9.1 0.5,-14 -2.1,-4.8 0.5,-8.8 5.1,-9 1.3,0 2,0.5 2.4,1.7 1,2.9 0.6,5.7 -0.3,8.5 -0.3,0.9 -0.8,1.8 -0.4,2.8 3.4,7.6 1.4,14.9 -1.5,22 -2.2,5.6 -4.7,11.1 -6.7,16.8 -1.8,5 0.3,11.1 5.2,13 2.3,1 6.1,-0.7 8.2,-2 6.3,-3.9 11.3,-8 17.5,-12.2 2.4,-1.6 5,-2.9 7.5,-4.2 1.6,-0.8 0.9,-0.3 2.3,-1.1 2.1,-13.7 10.1,-24.5 20.9,-31.3 3.1,-1.9 6.4,-3.2 10.2,-3.1 5.1,0.1 7.6,5.8 5.7,11.1 -3.3,9 -9.2,13.8 -18.1,17.2 -2.2,0.8 -8.1,2.3 -8.1,2.3 0,0 -1.2,3.4 -1.5,5.6 -0.9,6.2 0,12.2 3.3,17.7 2.6,4.3 12.1,6.4 16.8,4.3 9.8,-4.4 16.4,-11.8 24.9,-18.2 1.7,-1.2 3.7,-2.3 5.7,-2.8 3,-0.8 3.1,-1.3 3.1,-1.3 0,0 5.3,-20.6 18.4,-29.8 6,-4.1 19.1,-2.3 21.5,3.2 0.9,2.1 1.3,4.5 2,6.8 0.1,0.5 0.9,2.4 0.9,2.4 0,0 0.8,-1.7 1.1,-2.1 3.4,-6 6.8,-12 10.9,-17.7 1.3,-1.8 2.9,-3.1 5,-2 2.1,1 1.4,3 0.9,4.7 -2.4,7.6 -5.7,14.9 -9.6,21.9 -4.6,8.1 -6.7,17.1 -10.2,25.6 -1.8,4.2 -3.6,8.4 -5.4,12.5 -0.2,0.5 -1.9,4 -1.9,4 0,0 5.8,-3.3 6.3,-3.7 11,-6.2 19.3,-11.6 28.6,-20.2 5.7,-5.2 10.6,-11.2 15.9,-16.8 4.1,-4.2 8,-8.6 13.2,-11.6 2.3,-1.3 4.8,-2.4 7.4,-1.1 1.7,0.9 2.7,2.8 2.4,4.8 -0.3,2.2 -0.7,4.4 -1.6,6.4 -3.2,6.9 -6.7,13.6 -9.8,20.5 -0.9,2.1 -1.6,4.4 -1.7,6.7 -0.4,5.7 4.7,9.5 10.9,8.1 10.4,-2.4 18.2,-8.9 26.9,-14.9 10.4,-7.2 20,-15.4 31.2,-21.3 1.9,-1 2.9,-3.6 4.5,-5.2 3.7,-3.6 7.6,-7.1 13.4,-6.7 0.9,0.1 1.9,0.1 2.2,1.1 0.3,1.1 -0.9,1.2 -1.5,1.5 -7.2,3.2 -10.1,9.4 -12.1,16.5 -2.5,9.2 -5.6,18.2 -12.7,25.1 -0.4,0.4 -3,2.2 -3,2.2 0,0 3,0.4 3.6,0.4 5,-0.3 13.7,-3 16.9,-4.5 9.9,-4.8 28.6,-12.9 28.6,-12.9 0,0 0.2,-3.8 0.8,-6.2 2.7,-11.7 8.1,-22.2 14.7,-32.2 4.7,-7.2 17.8,-23.5 17.8,-23.5 0,0 -14,-3.3 -18,-4.8 -8.1,-3 -16.4,-5 -24.7,-7.1 -6.9,-1.7 -14.3,-3.5 -21.3,-4.4 -8.5,-1.1 -16.8,-1.8 -25.4,-2.5 -8.1,-0.6 -13.5,-0.5 -21.6,-0.5 -8.5,0 -19.6,2.4 -27.9,3.7 -7.7,1.2 -15.2,3.8 -22.7,5.7 -0.5,0.1 -5.4,1.4 -5.4,1.4 0,0 4.5,-2.4 5,-2.6 6.7,-1.9 13.4,-4.3 20.2,-5.5 11.4,-1.8 22.7,-4 35.5,-4.2 z m 154.1,242.4 c 11.1,0.4 19.6,-5 26.8,-12.5 14.6,-15.2 23.5,-33.9 30.6,-53.4 4.1,-11.5 9,-22.7 12.4,-34.4 1.9,-6.5 5,-12.8 7.4,-19.2 0.3,-0.7 1.3,-3.3 1.3,-3.3 0,0 -2.3,1.4 -3,1.7 -0.3,0.1 -0.6,0.3 -0.8,0.5 -7.3,4.9 -15.5,8.2 -23,12.9 -4.6,2.8 -9.3,5.5 -13.8,8.4 -5.2,3.3 -10.1,7.1 -15.5,10.1 -6.7,3.7 -13.2,7.7 -18.6,13.2 -4.4,4.4 -9.4,8.8 -13.1,13.8 -3.2,4.2 -5.3,9 -7.1,14.1 -3.6,10.5 -3.6,22.4 -1.6,33.3 1.9,9.8 11.3,14.3 18,14.8 z M 266.5,284.8 c 2.8,-0.3 6,-0.4 9,-1.7 5.3,-2.2 9.9,-5.4 14.3,-9 10,-8 16.4,-18.6 21.7,-29.8 7.4,-15.7 12.6,-32.4 17.5,-49 0.4,-1.2 1.5,-5.1 1.5,-5.1 0,0 -3.8,1.6 -4.9,2.3 -6.9,4.2 -13.6,8.9 -20.7,12.7 -8.2,4.4 -16.1,9.1 -23.7,14.3 -7.9,5.4 -15.5,11.4 -22.3,18.2 -8.7,8.5 -13.3,18.9 -11.8,31 1.1,9.5 9.6,15.8 19.4,16.1 z m 49.3,-118 c 0,2.7 2.6,3.3 4.5,2.6 1.5,-0.5 4.5,-3.1 5.6,-4.2 7.7,-7.4 12.5,-13.8 20.7,-20.5 3,-2.5 4,-6.3 2.8,-9.9 -0.5,-1.4 -0.9,-2.8 -1,-4.3 -0.6,-5.3 -6.4,-8.2 -10.8,-5.2 -4.6,3.1 -8.3,7 -11.4,11.7 -5.4,8 -10.4,28.6 -10.4,29.8 z M 554.3,97.9 c 0,0 -0.4,1.1 -1.6,2.8 -4.6,6 -9,12.2 -13.3,18.4 -6.4,9.3 -11.2,19.3 -15.4,29.7 -0.3,0.6 -0.8,2.8 -0.8,2.8 0,0 2,-1.2 2.5,-1.6 5.4,-4.3 17.9,-12.4 26.7,-22.2 15.5,-17.3 18.2,-25.8 18.2,-25.8 0,0 0,0 -0.9,-0.3 -4,-1.2 -15.4,-3.8 -15.4,-3.8 z m -271.9,27.9 c 0.4,-4.5 -2.3,-6.7 -4.7,-5.5 -1.3,0.7 -2.6,1.5 -3.8,2.5 -6.8,5.7 -11.5,12.9 -15.5,20.7 -0.4,0.7 -1.2,3.1 -1.2,3.1 0,0 2.4,-0.5 3.2,-0.8 4.9,-1.8 9.8,-3.5 13.9,-6.9 4.6,-3.6 7.7,-8.2 8.1,-13.1 z M 573,92.3 c 0.1,-3.3 0.9,-4 -1.6,-5.6 -2.1,-1.3 -6.6,-0.3 -8.5,1.2 -1.8,1.4 -3.2,3.1 -4.6,4.8 -0.5,0.6 -2.4,3.2 -2.4,3.2 0,0 6.8,1.9 7.8,2.2 2.4,0.7 8.1,1.7 8.1,1.7 0,0 1,-1.3 1.2,-7.5 z m 37.2,31.6 c 0,-0.8 -1,-2.4 -2.1,-2.3 -2.3,0.4 -2.3,2.6 -2.7,4.3 -0.2,0.9 1.3,4.8 1.3,4.8 0,0 3.6,-5.7 3.5,-6.8 z M 213.8,112.7 c -0.1,-0.8 -0.2,-2.6 -1.3,-2.7 -1.1,-0.1 -1.1,1.1 -1.2,1.8 -0.1,0.7 1.3,5 1.3,5 0,0 1.1,-3.4 1.2,-4.1 z"
       id="path81"
       inkscape:connector-curvature="0" /><path
       d="m 422.5,117.1 c 0,2 -2.7,5 -6.3,4.4 -2.4,0 -3.9,-4.8 -1.9,-8.1 1.1,-1.8 4.2,-2.3 6.5,-1.1 2.2,1.1 1.7,2.1 1.7,4.8 z"
       id="path83"
       inkscape:connector-curvature="0" /></g></svg>