<?xml version="1.0" encoding="UTF-8" standalone="no"?>
<!-- Generator: Adobe Illustrator 22.0.1, SVG Export Plug-In . SVG Version: 6.00 Build 0)  -->

<svg
   xmlns:dc="http://purl.org/dc/elements/1.1/"
   xmlns:cc="http://creativecommons.org/ns#"
   xmlns:rdf="http://www.w3.org/1999/02/22-rdf-syntax-ns#"
   xmlns:svg="http://www.w3.org/2000/svg"
   xmlns="http://www.w3.org/2000/svg"
   xmlns:sodipodi="http://sodipodi.sourceforge.net/DTD/sodipodi-0.dtd"
   xmlns:inkscape="http://www.inkscape.org/namespaces/inkscape"
   version="1.1"
   id="rsvp_xA0_Image_1_"
   x="0px"
   y="0px"
   viewBox="0 0 1296 360"
   xml:space="preserve"
   sodipodi:docname="rsvp.svg"
   inkscape:version="0.92.2 (5c3e80d, 2017-08-06)"
   width="1296"
   height="360"><metadata
     id="metadata114"><rdf:RDF><cc:Work
         rdf:about=""><dc:format>image/svg+xml</dc:format><dc:type
           rdf:resource="http://purl.org/dc/dcmitype/StillImage" /><dc:title></dc:title></cc:Work></rdf:RDF></metadata><defs
     id="defs112" /><sodipodi:namedview
     pagecolor="#ffffff"
     bordercolor="#666666"
     borderopacity="1"
     objecttolerance="10"
     gridtolerance="10"
     guidetolerance="10"
     inkscape:pageopacity="0"
     inkscape:pageshadow="2"
     inkscape:window-width="1920"
     inkscape:window-height="1017"
     id="namedview110"
     showgrid="false"
     inkscape:zoom="0.98209276"
     inkscape:cx="635.1031"
     inkscape:cy="285.02502"
     inkscape:window-x="-8"
     inkscape:window-y="-8"
     inkscape:window-maximized="1"
     inkscape:current-layer="rsvp_xA0_Image_1_"
     inkscape:measure-start="418.494,212.31"
     inkscape:measure-end="416.859,167.454" /><g
     id="g4822"
     transform="translate(6)"><path
       style="stroke-width:0.70084178"
       d="m 868.94564,123.82911 c 0,-6.658 -3.15379,-11.84423 -7.84942,-13.59634 -2.80337,-1.05126 -4.13497,0 -6.2375,1.82219 -0.56067,0.21025 -1.54185,1.54185 -3.43413,2.73328 -2.03243,1.26152 -4.27513,1.26152 -4.62555,0.14017 -0.49058,-1.40168 0,-3.15378 3.15379,-4.90589 3.22388,-1.82219 7.21867,-1.3316 10.51263,-0.42051 6.51783,1.75211 10.72287,9.53145 8.97077,17.10055 -2.24269,9.81178 -8.41009,17.24071 -16.53986,23.12777 -8.34002,6.02724 -17.24071,10.86305 -26.98242,14.22709 -2.59311,0.91109 -8.90068,2.38286 -8.90068,2.38286 0,0 -0.56068,0.77093 -0.98118,1.54185 -3.22387,5.81699 -8.12977,10.09212 -12.89549,14.57751 -4.13497,3.85463 -8.48019,7.21868 -13.94675,8.90069 -4.69565,1.40169 -9.39128,2.59312 -14.36726,1.7521 -4.55547,-0.77092 -7.28875,-3.99479 -6.658,-7.84943 0.63077,-3.78453 1.26152,-6.79816 8.9007,-10.09211 9.25111,-4.13497 28.30199,-7.64333 28.30199,-7.64333 0,0 0,0 1.48629,-3.28565 2.2427,-4.20505 4.27928,-8.34209 5.33055,-12.96765 1.05126,-4.55547 3.84797,-10.79504 -1.68868,-13.1779 -1.89228,-0.77092 -4.4153,-0.91109 -6.37766,-0.56067 -2.73329,0.49058 -2.73329,0.49058 -5.46657,1.12134 -6.09733,1.47177 -20.46457,9.67162 -20.46457,9.67162 0,0 -1.54186,2.2427 -2.59312,4.13496 -5.18623,9.39128 -11.14338,18.2219 -17.31079,26.98241 -5.81699,8.26993 -11.70406,16.53986 -17.38088,24.94997 -4.9059,7.28875 -9.3212,14.92793 -14.43734,22.07651 -5.3264,7.49902 -10.37246,15.27836 -17.87146,20.88509 -2.80337,2.10252 -5.88708,4.06489 -9.67162,3.71447 -3.78455,-0.35043 -8.48019,-1.3316 -7.00842,-9.88188 1.54186,-8.97078 3.43413,-14.85784 7.70926,-22.63719 5.7469,-10.37245 13.66641,-19.41331 21.44576,-28.38409 6.16741,-7.0785 14.08692,-13.80658 20.95517,-20.25433 5.11615,-4.83581 11.56388,-10.23229 16.96036,-14.71767 1.05127,-0.9111 5.07304,-3.2218 6.33456,-3.71239 2.59518,-4.17601 2.72705,-3.81937 4.61933,-7.32358 1.7521,-3.29395 2.42019,-4.54554 4.73297,-7.41899 0.28034,-0.35042 1.06327,-1.72929 1.06327,-1.72929 0,0 0.28033,-0.28033 0,0 -5.88707,4.69564 -13.03566,6.37767 -20.11416,8.19985 -4.06488,1.05127 -7.28876,2.17262 -10.86305,4.27513 -5.88708,3.50422 -8.55027,5.95717 -14.78776,10.2323 -6.72808,4.69563 -16.04928,11.77414 -22.49702,16.68003 -3.9948,3.01363 -7.35885,6.72808 -11.28355,9.95196 -5.18623,4.27513 -10.58271,8.26993 -17.31079,9.81178 -1.89228,0.49058 -4.69565,1.19143 -6.37767,-0.0701 -1.96236,-1.05126 -3.40093,-2.94976 -3.1206,-6.03346 0.35042,-4.48538 2.41813,-10.70214 4.66082,-14.20634 7.35884,-11.42372 16.05342,-20.14528 24.95412,-30.2374 0.56068,-0.63076 4.62304,-3.83804 4.62304,-3.83804 0,0 -2.45295,0.84102 -3.15379,1.19143 -8.83061,3.71447 -16.89029,8.76053 -24.66963,14.2271 -5.7469,4.06488 -11.77414,8.48018 -17.94155,11.84422 -3.36405,1.82219 -6.16741,3.85463 -9.60153,5.67682 -7.28876,3.85463 -14.71768,7.35884 -22.21669,10.79296 -6.44775,2.94354 -13.31599,4.27513 -20.04407,6.02725 -10.09212,2.59311 -20.32441,4.62555 -30.48661,7.00841 -6.44775,1.47177 -9.25112,-3.92471 -8.69045,-8.83061 0.4205,-3.5042 2.17262,-6.1674 3.85463,-8.97077 0.63076,-1.05126 1.47177,-2.03244 2.94354,-1.61194 0.91109,0.21026 1.3316,0.9111 1.40168,1.82219 0.14017,1.47177 -0.4205,2.52304 -1.68202,3.29396 -1.7521,1.12134 -3.92471,1.68201 -4.76573,3.99479 -0.98117,2.73329 -0.841,5.3264 1.19144,7.42893 1.89228,2.03244 4.41531,1.40169 6.51783,0.63075 5.18623,-1.89226 10.09212,-4.48538 14.01684,-8.55026 6.1674,-6.44775 10.29564,-14.26959 14.99129,-21.83869 3.85463,-6.16741 8.55698,-11.80171 12.27145,-18.10929 l 1.54185,-2.31278 c 0,0 -2.2427,0.77093 -2.6632,0.98118 -5.7469,2.6632 -11.14338,6.02723 -16.39969,9.53144 -3.85464,2.52304 -7.91952,4.83582 -11.49381,7.77935 -5.3264,4.34522 -11.21347,7.91951 -16.75012,11.84423 -5.3264,3.78454 -10.72288,7.56908 -16.68004,10.1622 -5.18623,2.31278 -10.23228,4.97598 -15.76893,6.51783 -6.79817,1.96236 -12.82541,0.77093 -17.66122,-4.27514 -2.87345,-3.0837 -4.08802,-8.30275 -3.45726,-12.29754 1.19144,-6.79817 4.36311,-12.03808 8.35791,-17.50464 3.50421,-4.76573 8.0843,-8.57784 11.65859,-13.27349 0.84101,-1.12135 2.36349,-2.54913 2.99425,-3.81064 0.21025,-0.35042 1.47177,-2.94353 1.47177,-2.94353 0,0 -2.31279,1.82218 -2.59312,2.03243 -7.28875,5.88708 -15.20826,10.37246 -22.14659,16.68004 -4.41532,4.06488 -8.97078,6.09732 -13.80659,9.46136 -6.51783,4.4153 -14.01684,9.7417 -21.02525,13.38608 -7.00843,3.64438 -14.36726,6.02724 -22.14661,7.21867 -6.09732,0.9111 -12.12456,0.28033 -17.80137,-2.03244 -5.53665,-2.24269 -11.00322,-4.69564 -15.48861,-8.83061 -0.98118,-0.9111 -2.1726,-2.1726 -1.12135,-3.36403 1.05126,-1.19143 2.31278,0 3.15379,0.841 0.91109,0.98118 1.61194,2.2427 2.38286,3.29396 2.38286,3.36404 8.34002,5.67682 11.91431,7.14859 5.39648,2.24269 8.76053,2.45294 14.71768,1.89226 11.42372,-1.12133 21.79618,-5.18622 31.39771,-11.35363 6.51783,-4.20505 15.90911,-10.58271 22.42694,-14.71768 4.55547,-2.94353 6.02724,-4.83581 10.44254,-8.12976 3.22388,-2.38286 6.02724,-4.27513 9.25111,-6.58791 3.78455,-2.73329 7.70926,-5.3264 11.0733,-8.69044 0.9111,-0.91109 1.12135,-2.03244 1.47178,-3.15379 1.19142,-4.06488 1.89226,-8.34002 3.5042,-12.26473 0.98118,-2.45295 3.9948,-4.06488 6.58791,-3.5743 1.61194,0.35043 2.52303,1.26152 2.38287,3.08371 -0.28034,3.29396 -2.17262,5.67682 -4.48539,7.70926 -1.96236,2.31278 -1.89228,1.47176 -3.43413,3.43413 0.56067,7.70926 -3.0151,17.70223 -6.86973,23.1688 -4.48538,6.23749 -8.63003,12.95589 -12.3445,19.68397 -1.82218,3.29395 -2.74445,7.16499 -1.41285,11.44012 1.7521,5.74691 3.59662,6.47008 9.55379,5.48891 7.35883,-1.26151 13.59632,-5.53666 20.11415,-8.76052 9.04086,-4.55547 17.3108,-10.51263 25.37048,-16.53987 7.70925,-5.74691 15.83901,-10.79296 23.8987,-15.83902 3.99479,-2.52303 8.4101,-4.4153 12.54507,-6.72808 2.45295,-1.40169 3.71446,-4.06489 5.88706,-5.81699 4.4854,-3.64438 8.62036,-7.84943 14.85785,-8.48019 h 0.14017 c 1.12134,0 2.59311,-0.4205 3.01362,0.70085 0.42051,1.19143 -0.91109,1.61193 -1.61193,2.10252 -4.83581,3.50421 -9.60154,6.86825 -13.17583,11.77414 -6.09733,8.4101 -9.2265,21.54422 -15.32383,29.95433 -5.53665,7.70926 -8.37203,10.66167 -15.94112,16.68892 -0.35042,0.28033 -3.21647,2.69601 -3.21647,2.69601 0,0 -0.4205,0.0701 0,0 8.19985,-1.89227 16.3997,-3.57429 24.45938,-6.02724 5.95716,-1.82219 11.63398,-4.4153 17.17063,-7.21867 7.28875,-3.71446 21.656,-11.70406 28.45417,-16.46978 6.658,-4.62556 6.658,-4.48539 13.38608,-9.11094 7.70926,-5.3264 15.90911,-9.95196 24.59955,-13.59633 0.98117,-0.42051 2.03244,-0.70085 3.0837,-0.63076 2.73328,0.14016 4.27513,2.17261 3.5042,4.76573 -1.40168,5.11614 -4.63177,9.71888 -7.99581,13.57351 -6.658,7.63917 -12.9718,15.07639 -19.1392,23.06598 -2.10253,2.6632 -4.19261,5.06059 -5.45413,8.21437 -0.49058,1.26152 -1.3316,3.85464 -0.14016,4.97598 1.19143,1.19144 7.91951,-2.10253 9.25111,-2.87345 4.34522,-2.59311 6.79816,-3.85463 10.51263,-7.42892 7.70926,-7.42892 12.19464,-10.79297 19.97399,-16.46978 4.13496,-3.01362 9.60153,-7.42892 13.7365,-10.30238 5.95715,-4.13496 9.60153,-6.86825 15.76894,-10.58271 4.76572,-2.87345 9.53144,-3.29395 14.08691,-4.4153 5.18623,-1.26152 10.30238,-3.0837 14.71768,-6.37766 0.98118,-0.70084 0.76099,-0.39813 1.82055,-1.4162 2.06503,-3.7096 3.62745,-6.13789 4.58616,-7.72334 0.4205,-0.77093 1.2532,-1.19557 2.02413,-1.61609 1.3316,-0.63075 3.55355,0.0327 4.74499,1.08401 1.05126,0.98118 0.91109,3.64438 0.49058,4.83581 -2.1726,5.67682 -5.67681,9.7417 -8.62035,15.0681 -0.0701,0.21025 -0.84101,1.40168 -0.84101,1.61193 0.35043,-0.0701 1.47177,-0.98117 1.82219,-1.12134 3.43412,-1.89227 7.9896,-4.4153 11.63397,-5.7469 4.76573,-1.68202 8.83061,-3.92472 14.08693,-3.36404 5.32639,0.56067 10.37246,4.8358 12.12456,11.00321 1.61193,5.60674 1.82218,11.0733 -0.56067,16.46978 -0.35043,0.77093 -0.4906,1.26152 -0.4906,1.26152 0,0 6.16741,-1.12135 8.4802,-1.96235 6.72808,-2.38287 16.60994,-7.49901 22.49701,-11.49381 8.19985,-5.60673 11.28356,-9.11095 14.99802,-14.57751 3.22387,-4.76572 4.69564,-11.00322 4.76572,-11.4938 0.56067,-0.63077 0.56067,-1.26152 0.56067,-1.40168 z m -172.4336,125.19522 c 3.9948,-0.0701 4.9287,-2.17468 6.82098,-3.99687 2.80337,-2.6632 4.14534,-6.30135 6.17777,-9.52522 3.71446,-6.02724 7.70097,-11.50833 11.5556,-17.46549 5.25632,-7.9896 9.33572,-16.80775 14.94245,-24.58709 5.53665,-7.70926 10.51885,-15.02084 15.77517,-23.01044 3.50421,-5.25631 13.10322,-17.04289 13.10322,-17.04289 0,0 -0.43709,0.14847 -0.78752,0.35872 -4.27513,2.45294 -2.87345,1.40168 -7.42892,5.53665 -5.53665,4.97598 -15.41852,13.52624 -20.95517,18.5723 -5.95715,5.39649 -12.68523,11.70406 -17.52104,18.1518 -1.96236,2.59312 -5.81699,7.21868 -7.77935,9.81179 -3.43412,4.55547 -6.37766,8.34002 -9.11094,13.316 -2.94354,5.25631 -4.55547,8.4101 -6.37766,14.15699 -1.19143,3.78455 -1.96236,8.76053 -1.54186,12.8955 0.28035,2.24269 1.51534,2.96842 3.12727,2.82825 z m 77.53798,-58.39256 c 3.29397,-0.28035 5.96753,-1.45933 8.84098,-3.07126 4.20505,-2.31278 9.14163,-5.46241 12.43559,-8.96662 2.52302,-2.6632 4.56998,-4.37219 7.09301,-6.96531 0.4205,-0.4205 2.18091,-2.38908 2.18091,-2.38908 0,0 -0.83522,0.15054 -1.3959,0.22063 -1.68202,0.28033 -3.43205,0.62453 -5.11407,1.04503 -5.88707,1.47177 -13.10574,2.94354 -18.78256,5.04606 -3.43413,1.26152 -5.25631,1.82219 -7.77934,4.48539 -1.89228,1.96236 -2.52303,6.30758 -1.40168,8.41011 1.33159,2.66319 1.68038,1.76454 3.92306,2.18505 z M 556.44029,119.97448 c 0.0701,-1.12135 -0.0701,-3.22388 -1.19143,-3.50422 -1.68202,-0.4205 -2.52302,0.70085 -3.22387,1.89227 -1.54185,2.73328 -2.59311,10.51263 -2.59311,10.51263 0,0 6.93833,-6.1674 7.00841,-8.90068 z"
       id="path105"
       inkscape:connector-curvature="0"
       sodipodi:nodetypes="cccccccccccccccccccccccccccccscccccccccccccccccccccccccccccscccccccccccccccccccccccccscccsccccccccsccccccccccccccccsccccccccccccccccccccccccccccccccccccccccccsccccccccccccccccccccccscccccccccc" /></g></svg>