<?xml version="1.0" encoding="UTF-8" standalone="no"?>
<!-- Generator: Adobe Illustrator 22.0.1, SVG Export Plug-In . SVG Version: 6.00 Build 0)  -->

<svg
   xmlns:dc="http://purl.org/dc/elements/1.1/"
   xmlns:cc="http://creativecommons.org/ns#"
   xmlns:rdf="http://www.w3.org/1999/02/22-rdf-syntax-ns#"
   xmlns:svg="http://www.w3.org/2000/svg"
   xmlns="http://www.w3.org/2000/svg"
   xmlns:sodipodi="http://sodipodi.sourceforge.net/DTD/sodipodi-0.dtd"
   xmlns:inkscape="http://www.inkscape.org/namespaces/inkscape"
   version="1.1"
   id="rsvp_xA0_Image_1_"
   x="0px"
   y="0px"
   viewBox="0 0 864 360"
   xml:space="preserve"
   sodipodi:docname="rsvp.svg"
   style="enable-background:new 0 0 864 360;"
   inkscape:version="0.92.2 (5c3e80d, 2017-08-06)"><metadata
     id="metadata114"><rdf:RDF><cc:Work
         rdf:about=""><dc:format>image/svg+xml</dc:format><dc:type
           rdf:resource="http://purl.org/dc/dcmitype/StillImage" /></cc:Work></rdf:RDF></metadata><defs
     id="defs112" /><sodipodi:namedview
     pagecolor="#ffffff"
     bordercolor="#666666"
     borderopacity="1"
     objecttolerance="10"
     gridtolerance="10"
     guidetolerance="10"
     inkscape:pageopacity="0"
     inkscape:pageshadow="2"
     inkscape:window-width="1023"
     inkscape:window-height="900"
     id="namedview110"
     showgrid="false"
     inkscape:zoom="1.3888889"
     inkscape:cx="511.67828"
     inkscape:cy="144.45283"
     inkscape:window-x="457"
     inkscape:window-y="66"
     inkscape:window-maximized="0"
     inkscape:current-layer="rsvp_xA0_Image_1_"
     inkscape:measure-start="418.494,212.31"
     inkscape:measure-end="416.859,167.454" /><g
     id="g107"
     transform="matrix(0.65580523,0,0,0.65580523,158.3442,62.28127)"><path
       d="m 775.3,100.8 c 0,-9.5 -4.5,-16.9 -11.2,-19.4 -4,-1.5 -5.9,0 -8.9,2.6 -0.8,0.3 -2.2,2.2 -4.9,3.9 -2.9,1.8 -6.1,1.8 -6.6,0.2 -0.7,-2 0,-4.5 4.5,-7 4.6,-2.6 10.3,-1.9 15,-0.6 9.3,2.5 15.3,13.6 12.8,24.4 -3.2,14 -12,24.6 -23.6,33 -11.9,8.6 -24.6,15.5 -38.5,20.3 -3.7,1.3 -12.7,3.4 -12.7,3.4 0,0 -0.8,1.1 -1.4,2.2 -4.6,8.3 -11.6,14.4 -18.4,20.8 -5.9,5.5 -12.1,10.3 -19.9,12.7 -6.7,2 -13.4,3.7 -20.5,2.5 -6.5,-1.1 -10.4,-5.7 -9.5,-11.2 0.9,-5.4 1.8,-9.7 12.7,-14.4 13.2,-5.9 43.1,-11.1 43.1,-11.1 0,0 0.9,-0.7 2.8,-4.3 3.2,-6 6.3,-12 7.8,-18.6 1.5,-6.5 1.9,-15.5 -6,-18.9 -2.7,-1.1 -6.3,-1.3 -9.1,-0.8 -3.9,0.7 -3.9,0.7 -7.8,1.6 -8.7,2.1 -29.2,13.8 -29.2,13.8 0,0 -2.2,3.2 -3.7,5.9 -7.4,13.4 -15.9,26 -24.7,38.5 -8.3,11.8 -16.7,23.6 -24.8,35.6 -7,10.4 -13.3,21.3 -20.6,31.5 -7.6,10.7 -14.8,21.8 -25.5,29.8 -4,3 -8.4,5.8 -13.8,5.3 -5.4,-0.5 -12.1,-1.9 -10,-14.1 2.2,-12.8 4.9,-21.2 11,-32.3 8.2,-14.8 19.5,-27.7 30.6,-40.5 8.8,-10.1 20.1,-19.7 29.9,-28.9 7.3,-6.9 16.5,-14.6 24.2,-21 1.5,-1.3 8.5,-4.5 10.3,-5.2 3.8,-4.6 3.6,-3.8 6.3,-8.8 2.5,-4.7 5.2,-9.3 8.5,-13.4 0.4,-0.5 2.1,-2.8 2.1,-2.8 0,0 -2.9,1 -3.3,1.4 -8.4,6.7 -18.6,9.1 -28.7,11.7 -5.8,1.5 -10.4,3.1 -15.5,6.1 -8.4,5 -12.2,8.5 -21.1,14.6 -9.6,6.7 -22.9,16.8 -32.1,23.8 -5.7,4.3 -10.5,9.6 -16.1,14.2 -7.4,6.1 -15.1,11.8 -24.7,14 -2.7,0.7 -6.7,1.7 -9.1,-0.1 -2.8,-1.5 -3.3,-4.5 -2.9,-8.9 0.5,-6.4 5.1,-14.3 8.3,-19.3 10.5,-16.3 23.1,-30.2 35.8,-44.6 0.8,-0.9 3.2,-4.7 3.2,-4.7 0,0 -3.5,1.2 -4.5,1.7 -12.6,5.3 -24.1,12.5 -35.2,20.3 -8.2,5.8 -16.8,12.1 -25.6,16.9 -4.8,2.6 -8.8,5.5 -13.7,8.1 -10.4,5.5 -21,10.5 -31.7,15.4 -9.2,4.2 -19,6.1 -28.6,8.6 -14.4,3.7 -29,6.6 -43.5,10 -9.2,2.1 -13.2,-5.6 -12.4,-12.6 0.6,-5 3.1,-8.8 5.5,-12.8 0.9,-1.5 2.1,-2.9 4.2,-2.3 1.3,0.3 1.9,1.3 2,2.6 0.2,2.1 -0.6,3.6 -2.4,4.7 -2.5,1.6 -5.6,2.4 -6.8,5.7 -1.4,3.9 -1.2,7.6 1.7,10.6 2.7,2.9 6.3,2 9.3,0.9 7.4,-2.7 14.4,-6.4 20,-12.2 8.8,-9.2 16.2,-19.4 22.9,-30.2 5.5,-8.8 10.7,-17.8 16,-26.8 0.4,-0.6 2.2,-3.3 2.2,-3.3 0,0 -3.2,1.1 -3.8,1.4 -8.2,3.8 -15.9,8.6 -23.4,13.6 -5.5,3.6 -11.3,6.9 -16.4,11.1 -7.6,6.2 -16,11.3 -23.9,16.9 -7.6,5.4 -15.3,10.8 -23.8,14.5 -7.4,3.3 -14.6,7.1 -22.5,9.3 -9.7,2.8 -18.3,1.1 -25.2,-6.1 -4.1,-4.4 -3.5,-10.2 -2.6,-15.9 1.7,-9.7 6.5,-18 12.2,-25.8 5,-6.8 10.3,-13.2 15.4,-19.9 1.2,-1.6 2,-3.5 2.9,-5.3 0.3,-0.5 2.1,-4.2 2.1,-4.2 0,0 -3.3,2.6 -3.7,2.9 -10.4,8.4 -21.7,14.8 -31.6,23.8 -6.3,5.8 -12.8,8.7 -19.7,13.5 -9.3,6.3 -20,13.9 -30,19.1 -10,5.2 -20.5,8.6 -31.6,10.3 -8.7,1.3 -17.3,0.4 -25.4,-2.9 -7.9,-3.2 -15.7,-6.7 -22.1,-12.6 -1.4,-1.3 -3.1,-3.1 -1.6,-4.8 1.5,-1.7 3.3,0 4.5,1.2 1.3,1.4 2.3,3.2 3.4,4.7 3.4,4.8 11.9,8.1 17,10.2 7.7,3.2 12.5,3.5 21,2.7 16.3,-1.6 31.1,-7.4 44.8,-16.2 9.3,-6 22.7,-15.1 32,-21 6.5,-4.2 8.6,-6.9 14.9,-11.6 4.6,-3.4 8.6,-6.1 13.2,-9.4 5.4,-3.9 11,-7.6 15.8,-12.4 1.3,-1.3 1.6,-2.9 2.1,-4.5 1.7,-5.8 2.7,-11.9 5,-17.5 1.4,-3.5 5.7,-5.8 9.4,-5.1 2.3,0.5 3.6,1.8 3.4,4.4 -0.4,4.7 -3.1,8.1 -6.4,11 -2.8,3.3 -2.7,2.1 -4.9,4.9 0.8,11 -5.4,23.2 -10.9,31 -6.4,8.9 -13,17.8 -18.3,27.4 -2.6,4.7 -5.7,9.4 -3.8,15.5 2.5,8.2 8.7,12.8 17.2,11.4 10.5,-1.8 19.4,-7.9 28.7,-12.5 12.9,-6.5 24.7,-15 36.2,-23.6 11,-8.2 22.6,-15.4 34.1,-22.6 5.7,-3.6 12,-6.3 17.9,-9.6 3.5,-2 5.3,-5.8 8.4,-8.3 6.4,-5.2 12.3,-11.2 21.2,-12.1 0.1,0 0.2,0 0.2,0 1.6,0 3.7,-0.6 4.3,1 0.6,1.7 -1.3,2.3 -2.3,3 -6.9,5 -13.7,9.8 -18.8,16.8 -8.7,12 -14.4,25.8 -23.1,37.8 -7.9,11 -16.2,21.8 -27,30.4 -0.5,0.4 -4.5,3 -4.5,3 0,0 4.8,-0.7 5.4,-0.8 11.7,-2.7 23.4,-5.1 34.9,-8.6 8.5,-2.6 16.6,-6.3 24.5,-10.3 10.4,-5.3 30.9,-16.7 40.6,-23.5 9.5,-6.6 9.5,-6.4 19.1,-13 11,-7.6 22.7,-14.2 35.1,-19.4 1.4,-0.6 2.9,-1 4.4,-0.9 3.9,0.2 6.1,3.1 5,6.8 -2,7.3 -6.9,12.8 -11.7,18.3 -9.5,10.9 -18.8,21.9 -27.6,33.3 -3,3.8 -5.4,7.9 -7.2,12.4 -0.7,1.8 -1.9,5.5 -0.2,7.1 1.7,1.7 11.3,-3 13.2,-4.1 6.2,-3.7 9.7,-5.5 15,-10.6 11,-10.6 17.4,-15.4 28.5,-23.5 5.9,-4.3 13.7,-10.6 19.6,-14.7 8.5,-5.9 13.7,-9.8 22.5,-15.1 6.8,-4.1 13.6,-4.7 20.1,-6.3 7.4,-1.8 14.7,-4.4 21,-9.1 1.4,-1 3.9,-2.8 5.8,-2.7 0.8,-1.4 0,0 0.4,-0.6 1.4,-2.6 2.8,-5.2 4.3,-7.8 0.6,-1.1 1.4,-1.9 2.5,-2.5 1.9,-0.9 4.1,-1.7 5.8,-0.2 1.5,1.4 1.3,5.2 0.7,6.9 -3.1,8.1 -8.1,13.9 -12.3,21.5 -0.1,0.3 -1.2,2 -1.2,2.3 0.5,-0.1 2.1,-1.4 2.6,-1.6 4.9,-2.7 11.4,-6.3 16.6,-8.2 6.8,-2.4 12.6,-5.6 20.1,-4.8 7.6,0.8 14.8,6.9 17.3,15.7 2.3,8 2.6,15.8 -0.8,23.5 -0.5,1.1 -0.7,1.8 -0.7,1.8 0,0 8.8,-1.6 12.1,-2.8 9.6,-3.4 23.7,-10.7 32.1,-16.4 11.7,-8 16.1,-13 21.4,-20.8 4.6,-6.8 6.7,-15.7 6.8,-16.4 0.8,-0.9 0.8,-1.8 0.8,-2 z m -244,179.8 c 5.7,-0.1 8.1,-3.2 10.8,-5.8 4,-3.8 6.4,-8.7 9.3,-13.3 5.3,-8.6 10.6,-17.1 16.1,-25.6 7.5,-11.4 14,-23.4 22,-34.5 7.9,-11 15.3,-22.5 22.8,-33.9 5,-7.5 15.3,-24.9 15.3,-24.9 0,0 -1.4,0.6 -1.9,0.9 -6.1,3.5 -4.1,2 -10.6,7.9 -7.9,7.1 -22,19.3 -29.9,26.5 -8.5,7.7 -18.1,16.7 -25,25.9 -2.8,3.7 -8.3,10.3 -11.1,14 -4.9,6.5 -9.1,11.9 -13,19 -4.2,7.5 -6.5,12 -9.1,20.2 -1.7,5.4 -2.8,12.5 -2.2,18.4 0.4,3.2 4.2,5.4 6.5,5.2 z m 111.8,-83.9 c 4.7,-0.4 9,-1.5 13.1,-3.8 6,-3.3 11.2,-7.6 15.9,-12.6 3.6,-3.8 7.2,-7.5 10.8,-11.2 0.6,-0.6 3.5,-3.7 3.5,-3.7 0,0 -4.2,0.7 -5,0.8 -2.4,0.4 -4.8,0.6 -7.2,1.2 -8.4,2.1 -18.7,4.2 -26.8,7.2 -4.9,1.8 -7.5,2.6 -11.1,6.4 -2.7,2.8 -3.6,9 -2,12 1.9,3.8 5.6,3.1 8.8,3.7 z M 329.4,95.3 c 0.1,-1.6 -0.1,-4.6 -1.7,-5 -2.4,-0.6 -3.6,1 -4.6,2.7 -2.2,3.9 -3.7,15 -3.7,15 0,0 9.9,-8.8 10,-12.7 z"
       id="path105"
       inkscape:connector-curvature="0" /></g></svg>