<?xml version="1.0" encoding="UTF-8" standalone="no"?>
<!-- Generator: Adobe Illustrator 22.0.1, SVG Export Plug-In . SVG Version: 6.00 Build 0)  -->

<svg
   xmlns:dc="http://purl.org/dc/elements/1.1/"
   xmlns:cc="http://creativecommons.org/ns#"
   xmlns:rdf="http://www.w3.org/1999/02/22-rdf-syntax-ns#"
   xmlns:svg="http://www.w3.org/2000/svg"
   xmlns="http://www.w3.org/2000/svg"
   xmlns:sodipodi="http://sodipodi.sourceforge.net/DTD/sodipodi-0.dtd"
   xmlns:inkscape="http://www.inkscape.org/namespaces/inkscape"
   version="1.1"
   id="wedding_xA0_Image_1_"
   x="0px"
   y="0px"
   viewBox="0 0 864 360"
   xml:space="preserve"
   sodipodi:docname="wedding.svg"
   style="enable-background:new 0 0 864 360;"
   inkscape:version="0.92.2 (5c3e80d, 2017-08-06)"><metadata
     id="metadata140"><rdf:RDF><cc:Work
         rdf:about=""><dc:format>image/svg+xml</dc:format><dc:type
           rdf:resource="http://purl.org/dc/dcmitype/StillImage" /><dc:title></dc:title></cc:Work></rdf:RDF></metadata><defs
     id="defs138" /><sodipodi:namedview
     pagecolor="#ffffff"
     bordercolor="#666666"
     borderopacity="1"
     objecttolerance="10"
     gridtolerance="10"
     guidetolerance="10"
     inkscape:pageopacity="0"
     inkscape:pageshadow="2"
     inkscape:window-width="758"
     inkscape:window-height="480"
     id="namedview136"
     showgrid="false"
     inkscape:zoom="0.98209275"
     inkscape:cx="483.72453"
     inkscape:cy="220.36127"
     inkscape:window-x="2685"
     inkscape:window-y="278"
     inkscape:window-maximized="0"
     inkscape:current-layer="wedding_xA0_Image_1_"
     inkscape:measure-start="440.342,276.42"
     inkscape:measure-end="442.8,183.6" /><g
     id="g133"
     transform="matrix(0.75681986,0,0,0.75681986,104.94374,45.229468)"><path
       d="m 266.2,145.4 c -7.1,-0.4 -14.4,-0.9 -20.8,-4.9 -3.6,-2.2 -5.7,-1.4 -8,2.4 -5.4,8.9 -10.9,17.6 -17,25.9 -3,4 -6.4,7.7 -10.7,10.3 -5.5,3.3 -11.1,0.9 -14.6,-6 -2.4,-4.7 -2.5,-9.4 -1.4,-14.4 1,-4.6 2,-9.3 3.8,-13.7 0.3,-0.8 3.5,-7.8 3.5,-7.8 0,0 -5.2,5.9 -5.7,6.5 -4.5,5.5 -8.3,11.6 -14.3,15.8 -4.1,2.8 -9.5,1.1 -11.9,-3.2 -5.1,-9.1 0.2,-16.4 3.7,-24 1.3,-2.7 3,-5.2 4.5,-7.8 0.2,-0.4 2.6,-4 2.6,-4 0,0 -3.4,2.8 -3.7,3 -9,5.8 -18.9,8.3 -29.5,9.1 -6.6,0.5 -13.4,0.9 -19,5.2 -2.8,2.2 -4.9,5.2 -7.1,8.1 -0.9,1.2 -2.2,2.5 -3.7,1.2 -1.4,-1.2 -0.2,-2.7 0.6,-3.7 4.9,-5.8 11.3,-9 18.8,-10.4 8.9,-1.7 18,-1.6 26.6,-4.6 8.5,-2.9 16.1,-7.3 21.7,-14.6 1.3,-1.6 2.4,-3.4 4.1,-4.6 1.2,-0.9 2.7,-1.7 3.9,-0.5 1.2,1.1 0.2,2.5 -0.5,3.6 -2.6,4.2 -5.3,8.4 -7.8,12.6 -4.2,7 -8.2,14.1 -10.2,22.1 -0.6,2.5 -0.7,5 -0.2,7.4 0.6,3.6 4,6.1 7.5,3.4 5.3,-4.2 10.5,-11.1 14.6,-16.4 2.6,-3.3 5.3,-6.6 8.9,-9 1.2,-0.8 2.6,-1.3 3.9,-0.1 1.3,1.1 0.9,2.5 0.4,3.9 -3.1,9.6 -7.1,19 -8,29.1 -0.3,3.1 0.5,8 1.3,9.2 1.1,2.5 4.9,3.9 7.8,2.6 5.8,-2.6 13.6,-14.5 16.9,-19.6 5,-7.7 5.5,-9.6 10.6,-17.3 1.5,-2.3 3.7,-3.1 6.1,-1.7 14.5,8 28.8,5.2 28.8,5.2 0,0 0.1,-0.8 0.6,-2.1 2.6,-6.4 7.1,-11 12.8,-14.8 3.9,-2.6 8.4,-3.4 12.9,-3 3.2,0.3 4.4,3.9 2.9,6.9 -4.3,9.2 -19,12.7 -19,12.7 0,0 -2.3,2.2 -3.5,6.6 -1.1,4.1 -2.6,7.4 -1.1,11.9 2.4,7.6 9.2,10.8 16.4,7.2 7.2,-3.6 13,-9 18.9,-14.4 3.6,-3.3 9.4,-7 13.9,-8.6 6.8,-2.4 10.7,-6.2 14.4,-12.1 4,-6.3 8,-9.3 16.5,-11.7 1.9,-0.5 5.5,-0.9 7.5,-0.9 4.6,-0.1 6,2.6 7.1,8.3 0.5,2.6 0.1,3.1 0.1,3.1 0,0 2.1,-2.4 2.7,-3.5 3.6,-6.2 6.9,-12.6 10.8,-18.7 6.4,-10.1 11.7,-21 19.5,-30.3 7.7,-9.3 16,-18.1 25.3,-25.7 4,-3.3 8.9,-4.9 14.1,-4.8 4.3,0.1 7.5,3.6 7.3,8.6 -0.2,6 -1.5,11.8 -4.8,17.1 -4.9,7.9 -11.9,13.6 -19.1,19.2 -6.8,5.2 -13.5,10.5 -20.4,15.6 -3.8,2.8 -7.9,5.1 -12,7.5 -1.7,1 -3.2,2 -4.2,3.8 -3.7,6.5 -8.1,12.7 -11.2,19.5 -3.3,7.4 -7.2,15.3 -4.5,23.5 2.6,7.9 10.3,11.6 18.5,6.5 11.2,-7 21.7,-15 31.6,-23.7 3.4,-3 5.6,-7.1 9.4,-9.7 4.5,-3.2 9.6,-3.9 14.8,-3.1 4.4,0.7 6.1,4.3 6.1,4.3 0,0 0.2,-0.7 0.9,-2.1 5,-10.5 10.9,-20.4 16.9,-30.3 6.7,-11.1 15.8,-22.6 25.6,-31.1 3.9,-3.4 6.1,-6.1 11,-8.3 5.9,-2.7 10.3,-0.4 11.4,5.9 2.2,12.6 -1.9,23.2 -9.9,32.7 -6.6,7.8 -15.2,12.9 -23.6,18.4 -6.3,4.1 -12.8,7.7 -18.6,12.4 -3.8,3 -5.4,8 -7.2,12.6 -2.3,5.9 -3.1,11.9 -1.8,18.2 1.2,5.9 7,6.9 11,4.7 7.5,-4.2 18.5,-12.3 25.1,-17.8 5.2,-4.3 6.6,-5.6 12.2,-9.4 4,-2.7 8.7,-4.2 13.2,-5.8 1.5,-0.5 3.1,-0.1 4.1,1.3 1.3,1.8 1.3,3.8 0.4,5.8 -2.1,5 -5.3,9.4 -8.2,13.9 -2,3 -3.5,6.2 -4.3,9.7 -0.5,2.4 2.2,4.9 4.6,4.1 4.8,-1.6 8.5,-5.4 12.7,-8 8.5,-5.3 18.3,-11.5 26.9,-16.7 4.6,-2.8 7.6,-4.7 12.6,-6.8 2.1,-0.9 4.2,-0.9 5.8,0.7 1.6,1.6 1.2,3.6 0.7,5.6 -0.3,1.1 -6.5,11.6 -6.5,11.6 0,0 8.2,-9.2 9.1,-10.1 3.7,-3.8 7.6,-7.6 12,-10.5 4,-2.6 6.2,-2.6 8.9,-1.3 2.7,1.3 2.5,5 2,7.9 -1.1,6.1 -4.3,11.2 -7.5,16.3 -2.4,3.8 -4.5,7.6 -5.1,12.2 -0.3,2.7 1.3,5 3.8,3.9 4.9,-2 10.2,-5.6 14.8,-8.2 6.8,-3.9 12.8,-8.2 20.7,-9.7 1.4,-0.3 2.4,-0.8 3.2,-2.1 4.3,-6.8 9.8,-12.2 17.5,-15.1 6.2,-2.3 11.7,-1.1 13.2,6.3 0.1,0.7 0.3,3.3 0.3,3.3 0,0 2,-2.3 2.5,-2.9 5.5,-6.3 11.3,-12.1 19,-15.8 0.3,-0.1 0.6,-0.3 0.9,-0.4 1.4,-0.3 3,-1.5 4.1,0.1 1.1,1.7 -0.7,2.4 -1.7,3.3 -9.9,9.1 -17.5,19.8 -23.6,31.8 -3,5.8 -5.9,11.7 -8.4,17.7 -0.2,0.4 -0.2,0.4 -1,2.3 1.9,-0.4 1.9,-0.4 2.5,-0.6 17.6,-4.3 34.5,-10.2 50.1,-19.9 10.3,-6.4 22,-16.1 29.4,-25.6 4.2,-5.3 5.9,-9.7 6.9,-16.3 0.3,-2.2 1.8,-10.9 -5.7,-22.2 -5,-7.6 -12.1,-12.7 -21.3,-15.1 -9.7,-2.6 -19.1,-2.4 -28.6,0.1 -4,1 -7.8,3 -11.3,5.3 -2.1,1.4 -4.2,2.7 -6.5,3.5 -0.9,0.3 -1.9,0.5 -2.5,-0.4 -0.6,-0.9 0.2,-1.7 0.9,-2.2 4,-2.8 8.4,-4.8 13.1,-6.1 8.3,-2.4 17,-4.3 25.6,-2.9 10.5,1.7 20.5,4.5 28.3,13.4 8.1,9.2 11,19.8 8.2,30.8 -1.9,7.3 -5.3,12.3 -10.6,17.8 -5.9,6 -16,15.4 -23.4,19.8 -11.2,6.6 -18.9,11.1 -31.4,15.2 -7.9,2.6 -24.4,7.1 -24.4,7.1 0,0 -2.4,4.7 -3.5,6.8 -3.7,7.4 -7,14.7 -10.6,22.2 -3.6,7.5 -7.1,15.1 -11.2,22.4 -6.2,11.3 -12.2,22.8 -19.2,33.7 -5.7,8.8 -11.1,17.8 -18.4,25.3 -8.6,8.8 -18,16.9 -30.5,19.4 -7.9,1.6 -16.3,2.8 -24,-1.3 -4.4,-2.4 -8.2,-5.7 -10.2,-10.1 -1.6,-3.7 -2.5,-8.5 -2.7,-12.6 -0.2,-5.2 0.2,-8.3 1.1,-13.3 2.5,-13.1 11.4,-25.4 20.3,-34.8 7.1,-7.5 15.4,-13.7 23.7,-20 11.1,-8.4 24.2,-12.8 36.3,-19.1 10.2,-5.3 26.7,-12.9 37.2,-17.2 2.2,-5 1.8,-4.3 4.5,-9.7 2.7,-5.5 4.8,-10.6 7.4,-15.8 0.4,-0.7 2.1,-4.9 2.1,-4.9 0,0 -5,4.9 -5.5,5.4 -3.3,3.2 -4.3,4.6 -8.7,6.6 -2.9,1.3 -5.7,2.2 -8.8,1.7 -5,-0.9 -6.9,-2.8 -5.8,-7.8 0.2,-1 2.7,-6 2.7,-6 0,0 -5,1.3 -6.1,1.7 -6,2.3 -11.6,5.5 -17.1,8.9 -4.2,2.7 -8.6,5.2 -13.1,7.5 -5.7,3 -12.4,-1.5 -12.3,-8 0.1,-5.3 2.8,-9.6 5.2,-14 2.6,-4.6 6.7,-9.6 8.3,-14.7 0.3,-1.1 0.8,-2.5 -0.1,-3.2 -0.9,-0.8 -4.8,1.6 -5.5,2.2 -8.1,6.8 -14.4,12.9 -20.5,21.8 -1.6,2.4 -3.2,4.7 -4.7,7.1 -1.5,2.4 -4.1,2.1 -6.2,1.1 -2.3,-1 -2.3,-3.1 -1.3,-5.2 2.8,-6.4 7.7,-11.4 11.3,-17.3 0.6,-1 4.7,-6.4 4.7,-6.4 0,0 -0.4,-0.7 -4.3,1.1 -7.9,3.8 -18.6,11.2 -26.3,15.4 -7.1,3.9 -13.4,8.9 -20.1,13.3 -3.7,2.4 -7.9,4.4 -12.2,1.7 -5,-3 -6,-9.3 -2.7,-14.9 2.9,-4.9 6,-9.8 9,-14.7 0.4,-0.6 3.4,-4.1 3.4,-4.1 0,0 -3.2,1.1 -3.9,1.3 -8,2.4 -14.9,9.5 -21.2,14.4 -7.1,5.5 -14.3,10.7 -21.8,15.6 -4.3,2.8 -8.3,4.4 -13,1.7 -6.4,-3.7 -9.7,-9.3 -10,-16.7 0,-3.2 0,-5.2 0,-5.2 0,0 -2.5,2.3 -3.4,3 -5,3.9 -8.6,10.1 -13.7,13.8 -2.7,1.9 -5.2,3.5 -8.5,1.5 -3.1,-1.9 -5.1,-6.6 -4.4,-10.2 0.3,-1.6 0.6,-3.6 1,-4.8 0.4,-1.2 2.1,-4.5 2.1,-4.5 0,0 -3.6,2.7 -4.1,3.2 -3.7,3.1 -7.4,6.3 -11.2,9.1 -4.9,3.6 -9.8,7.4 -15,10.5 -5.8,3.4 -11.7,2.3 -17.8,-0.3 -7.3,-3 -11.7,-16.2 -9.2,-24.1 0.9,-2.9 1.8,-5.8 2.6,-8.7 0.2,-0.7 0.4,-1.9 0.4,-1.9 0,0 -1.1,1.3 -1.7,1.8 -6.7,6.4 -9.1,11.7 -15.6,18.3 -2.5,2.5 -3.4,3.2 -6.5,4.9 -4.5,2.4 -11.2,1.3 -12.4,-5.1 -0.6,-3.4 -0.4,-6.4 0.6,-9.6 0.3,-1 3.4,-7.3 3.4,-7.3 0,0 -6.9,4.6 -7.9,4.9 -10.6,3.3 -18.5,11.6 -26.6,18.3 -4.9,4.1 -8.7,6.9 -15.2,8 -6.3,1.1 -17.7,-6.5 -18.9,-13.2 -0.8,-4.3 0.3,-8.1 1.7,-11.9 0.6,-1.8 0.8,-2.5 0.8,-2.5 0,0 -3,0 -6,0 z m 285.6,175.5 c 4.8,-0.1 8.1,-0.5 12.5,-2.7 7,-3.5 12.7,-8.7 18.1,-14.3 6.9,-7.2 12.2,-15.6 17.4,-24.2 5.3,-8.7 10.6,-17.4 15.5,-26.3 4.6,-8.4 8.6,-17.1 12.8,-25.8 5.1,-10.4 10.2,-20.8 14.7,-31.5 0.3,-0.6 0.5,-1.5 0.9,-2.8 -0.7,0.2 -2.1,1 -2.7,1.3 -1.7,0.9 -3.5,1.6 -5.3,2.3 -11.8,5.2 -23.5,10.5 -35.1,16.2 -8.2,4 -16.7,7.5 -24.4,12.4 -7.7,4.9 -14.5,11 -21.5,16.8 -7.9,6.5 -14,14.6 -19.3,23.3 -3.4,5.5 -3.7,5.8 -5.8,11.6 -2.6,7.2 -4.1,21.6 -0.9,29.1 3.6,8.9 12.4,15 23.1,14.6 z M 451.3,59 c -0.1,-2.7 -0.7,-5.7 -3.4,-7.1 -3,-1.5 -6.1,-0.9 -8.9,1.1 -1.6,1.2 -2.8,2.7 -4.2,4 -9.4,8.8 -16.2,19.4 -22.8,30.2 -5.3,8.6 -9.5,17.9 -15.2,26.2 -0.5,0.8 -2.1,4 -2.1,4 0,0 3.1,-1.8 3.9,-2.2 14,-9.3 27.4,-19.3 39.9,-30.5 7.7,-6.8 13.1,-15.6 12.8,-25.7 z m 70.9,21 c -0.1,-2.1 -0.1,-4.6 -0.6,-6.7 -0.6,-2.6 -1.1,-4.8 -4,-5.5 -2.5,-0.6 -3.9,1.2 -5.2,2.9 -6.9,8.7 -13.9,17.3 -20.2,26.5 -7.6,11.1 -13.5,23 -20.1,34.6 -0.3,0.5 -1.3,2.9 -1.3,2.9 0,0 2.1,-1.5 2.6,-1.8 7.6,-4.8 15.2,-9.6 22.7,-14.6 6.4,-4.2 12.4,-8.9 17,-15.2 5.3,-7.1 9.6,-14.2 9.1,-23.1 z M 342,157.8 c 0,1.9 1.2,3.9 2.7,4.1 2,0.2 6.5,-3.7 7.1,-4.3 2.4,-2 3.7,-4.2 6.4,-7.3 4.6,-5.4 3.8,-6 9.2,-10.7 2.7,-2.3 5.2,-3.7 4.6,-8.3 -0.2,-1.3 -0.7,-2.8 -1,-4.1 -0.7,-3.4 -4.9,-4.2 -7.8,-3.4 -4.9,1.2 -6.8,3.8 -9.9,7.6 -7.2,8.8 -11.2,15.8 -11.3,26.4 z m 87.2,6.4 c 0,1.8 0.5,5.2 3.1,4.3 1.5,-0.5 3.6,-2.4 4.8,-3.5 4.3,-4 7.6,-8.7 12,-12.7 3.5,-3.2 5,-7.3 6.5,-11.5 0.1,-0.4 0.1,-1 -0.1,-1.4 -2,-3.6 -6.5,-4.8 -10.2,-2.9 -5.1,2.7 -7.8,7.3 -10.9,11.9 -3.4,4.8 -5.3,10.3 -5.2,15.8 z m 211.6,9 c 1.4,-0.1 4.1,-1.4 5.6,-2.5 5.6,-4.5 9.6,-9.6 14.9,-14.2 3.1,-2.7 2.9,-8.6 -0.2,-11.4 -1.7,-1.6 -3.6,-1.9 -5.5,-0.4 -8,6.1 -14.5,13.6 -18.2,23.1 -1.3,3.3 -0.6,5.4 3.4,5.4 z M 301.4,128.4 c 0.2,-1.7 -0.5,-2.5 -1.7,-3.2 -1,-0.6 -3,-0.1 -4.4,0.8 -5.4,3.4 -7.8,8.2 -10.8,13.9 -0.2,0.3 -1.2,2.1 -1.2,2.1 0,0 2.4,-0.4 2.7,-0.5 3.1,-1 5.7,-2.2 8.5,-4 3.6,-2.3 6.4,-5.2 6.9,-9.1 z"
       id="path129"
       inkscape:connector-curvature="0" /><path
       d="m 537.3,128.7 c -3.5,0.4 -4.4,-2.8 -4.6,-4.4 -0.3,-2.5 1.9,-4.1 4.3,-4.1 2.4,0 4.8,1 4.9,4.1 0,2.4 -1.6,4.5 -4.6,4.4 z"
       id="path131"
       inkscape:connector-curvature="0" /></g></svg>